<?xml version="1.0" encoding="utf-8"?>
<!-- Generator: Adobe Illustrator 27.5.0, SVG Export Plug-In . SVG Version: 6.00 Build 0)  -->
<svg version="1.1" xmlns="http://www.w3.org/2000/svg" xmlns:xlink="http://www.w3.org/1999/xlink" x="0px" y="0px"
	 viewBox="0 0 750 500" style="enable-background:new 0 0 750 500;" xml:space="preserve">
<g id="BACKGROUND">
	<rect style="fill:#FFFFFF;" width="750" height="500"/>
</g>
<g id="OBJECTS">
	<g>
		<path style="fill:#DCE8FF;" d="M103.318,230.05c13.073-68.628,89.876-90.255,150.326-90.255c99.378,0,88.456-64.053,203.31-72.187
			c117.046-8.288,200.837,71.509,191.017,180.407c-10.542,116.901-182.459,149.456-271.589,150.053
			C287.251,398.666,78.26,361.595,103.318,230.05z"/>
		<g>
			<g>
				<path style="fill:#FF5555;" d="M124.736,268.767c0,0,24.475-7.239,36.14,1.365c12.875,9.496,31.992,3.082,44.44-3.704
					c13.972-7.617,44.562,3.975,50.304,12.536c0,0,12.746-71.813-18.137-122.885l-36.139-6.034c0,0-4.232-0.136-12.92,5.917
					c-22.781,15.872-15.524,46.159-34.17,61.531C128.397,238.812,124.736,268.767,124.736,268.767z"/>
			</g>
			<g>
				<path style="fill:#C8DADB;" d="M154.255,305.144l37.561-59.014l37.164,1.509l13.778,64.16
					C242.758,311.799,207.64,306.358,154.255,305.144z"/>
				<g>
					<path style="fill:#B367CE;" d="M222.686,126.503c-6.205,4.552-13.685,7.345-21.355,7.974c-4.759,0.39-9.686-0.015-14.18,1.601
						c-8.823,3.172-13.771,13.281-22.656,16.272c-5.704,1.92-12.117,0.471-17.334-2.532c-4.511-2.596-8.447-6.458-10.32-11.314
						c-1.356-3.514-1.141-8.301,2.169-10.099c3.396-1.844,7.735,0.627,11.42-0.541c4.295-1.361,5.708-6.805,9.292-9.533
						c5.937-4.519,15.436,1.161,22.408-1.494c7.732-2.945,10.198-12.146,17.146-16.637c5.742-3.71,17.767-5.527,24.853,4.283
						C231.215,114.292,222.686,126.503,222.686,126.503z"/>
				</g>
				<path style="fill:#3D4C91;" d="M219.199,406.382c-4.426-106.234-14.136-143.181-14.136-143.181
					c-24.184,66.501-52.783,143.674-52.783,143.674c-5.159,0.865-9.58-0.659-9.176-0.731
					c14.472-109.6,35.134-177.523,35.134-177.523c20.931-9.083,60.4,2.641,60.4,2.641s12.045,47.546-10.424,174.726
					C228.215,405.989,223.856,407.437,219.199,406.382z"/>
				<path style="fill:#3D4C91;" d="M283.772,114.125h-6.698c0,0-4.035,36.749-5.947,36.581c-1.802-0.158-20.114-1.893-30.876-2.799
					c-7.051-0.593-16.446-1.264-34.305-1.457c-9.907-0.107-25.484,1.545-31.18,5.772c-8.573,6.402-38.708,40.746-38.708,49.456
					c0,8.833,32.318,35.857,32.318,35.857l4.524-2.587c0.09-0.627,0.181-1.253,0.266-1.872c-3.365-5.69-16.712-28.514-16.151-31.612
					c6.914-8.591,19.04-20.56,19.04-20.56s1.308,20.643-2.641,50.34c5.752,0.772,36.151,4.501,72.216,2.419
					c0.085-22.667-0.671-45.723-3.258-62.213c0,0,33.8-1.318,40.902-4.249C291.391,163.872,283.772,114.125,283.772,114.125z"/>
				<path style="fill:#95B4BC;" d="M228.215,405.989c-3.555-0.602-9.016,0.393-9.016,0.393c-1.823,4.822-0.834,8.151-0.834,8.151
					s30.641-0.022,31.313-0.402C253.734,411.834,245.308,408.881,228.215,405.989z"/>
				<path style="fill:#95B4BC;" d="M143.104,406.145c3.551-0.624,9.176,0.731,9.176,0.731c1.854,4.81,0.715,7.741,0.715,7.741
					s-30.627,0.183-31.301-0.193C117.623,412.153,126.031,409.146,143.104,406.145z"/>
				<path style="fill:#FFC6BB;" d="M173.929,234.36c0,0,3.982,4.495,4.302,6.834c0.162,1.871-2.082,6.555-6.925,9.687
					c-3.754,1.739-7.22-2.041-7.341-4.223c-0.039-0.695,2.919-1.614,2.919-1.614s2.633-2.359,1.492-7.508
					C168.376,237.535,168.245,234.725,173.929,234.36z"/>
				<path style="fill:#F4ABA4;" d="M205.019,146.446l0.64-14.612l11.476-0.037l0.172,14.864l-1.298,12.067
					c-0.278,2.583-3.777,3.165-4.876,0.811L205.019,146.446z"/>
				<path style="fill:#FFC6BB;" d="M225.678,118.034c-4.017-1.399-7.883-6.243-7.883-6.243c-2.247,2.531-7.075,3.655-11.519,4.803
					c-3.619,0.935-4.596,4.982-4.596,4.982c-2.581-4.234-5.218-1.863-4.422,1.459c0.795,3.322,3.316,4.389,3.316,4.389
					s4.625,11.397,12.211,11.373C222.828,138.763,225.678,118.034,225.678,118.034z"/>
				<g>
					<g>
						<g>
							<path style="fill:#DD9E97;" d="M215.025,128.247c0.352,0.011,0.852-0.044,1.421-0.31c0.141-0.07,0.287-0.155,0.428-0.275
								c0.073-0.06,0.137-0.122,0.208-0.213c0.045-0.048,0.079-0.125,0.12-0.189c0.033-0.067,0.106-0.133,0.054-0.209
								c-0.069-0.194-0.139-0.392-0.211-0.594c-0.061-0.162-0.124-0.327-0.187-0.495c-0.525-1.336-1.113-2.448-1.554-3
								c0.051,0.701,0.38,1.922,0.908,3.264c0.068,0.167,0.135,0.331,0.2,0.492l0.102,0.237l0.05,0.114c0,0,0.003-0.004,0.006,0
								c0.005,0.007,0.009,0.009,0.001,0.027c-0.022,0.04-0.062,0.097-0.105,0.142c-0.082,0.097-0.184,0.186-0.287,0.268
								C215.755,127.833,215.32,128.061,215.025,128.247z"/>
						</g>
					</g>
				</g>
				<path style="fill:#FFFFFF;" d="M213.555,129.889l4.24-0.014c0,0-0.332,1.688-2.114,1.693
					C213.898,131.575,213.555,129.889,213.555,129.889z"/>
				<g>
					<path style="fill:#FFFFFF;" d="M211.487,123.572c0.003,0.983-0.791,1.783-1.774,1.786c-0.983,0.003-1.783-0.791-1.786-1.774
						c-0.003-0.983,0.791-1.783,1.774-1.786C210.685,121.795,211.484,122.589,211.487,123.572z"/>
					<path style="fill:#444444;" d="M209.75,124.647c-0.551,0.002-0.999-0.444-1.001-0.995c-0.002-0.551,0.443-0.999,0.995-1.001
						s0.999,0.444,1.001,0.995C210.746,124.197,210.301,124.645,209.75,124.647z"/>
				</g>
				<g>
					<path style="fill:#FFFFFF;" d="M222.848,123.533c0.003,0.983-0.791,1.783-1.774,1.786c-0.983,0.003-1.783-0.791-1.786-1.774
						c-0.003-0.983,0.791-1.783,1.775-1.786C222.046,121.755,222.845,122.55,222.848,123.533z"/>
					<path style="fill:#444444;" d="M221.111,124.608c-0.551,0.002-0.999-0.444-1.001-0.995c-0.002-0.551,0.444-0.999,0.995-1.001
						c0.551-0.002,0.999,0.444,1.001,0.995C222.107,124.158,221.662,124.606,221.111,124.608z"/>
				</g>
				<g>
					<g>
						<g>
							<path style="fill:#444444;" d="M211.09,121.111c-0.233-0.329-0.906-0.716-1.755-0.669c-0.844,0.041-1.49,0.49-1.67,0.858
								c0.41-0.016,1.019-0.127,1.706-0.161C210.057,121.099,210.676,121.16,211.09,121.111z"/>
						</g>
					</g>
				</g>
				<g>
					<g>
						<g>
							<path style="fill:#444444;" d="M219.74,121.08c0.415,0.046,1.033-0.019,1.719,0.017c0.687,0.03,1.297,0.136,1.707,0.15
								c-0.183-0.368-0.831-0.812-1.676-0.848C220.642,120.358,219.971,120.75,219.74,121.08z"/>
						</g>
					</g>
				</g>
				<path style="fill:#FFC6BB;" d="M286.195,107.014c-0.392,1.413-2.423,7.111-2.423,7.111c-2.474,1.781-5.801,0.753-6.698,0
					c0,0-4.338-5.262-4.308-6.496c0.034-1.413,1.327-3.736,1.327-3.736c0.148-0.84,0.758-3.896,1.301-4.339
					c1.411-1.149,3.456,0.61,3.728,0.63c0.272,0.02,5.532,1.034,6.029,1.837C285.649,102.825,286.449,106.102,286.195,107.014z"/>
				<g>
					<path style="fill:#E9F3F4;" d="M173.166,233.076c-0.086,0.619-0.176,1.245-0.266,1.872l1.029-0.588
						C173.929,234.36,173.65,233.895,173.166,233.076z"/>
					<path style="fill:#FFFFFF;" d="M205.019,146.446c-9.926,0.002-24.732,1.679-30.253,5.777
						c-8.573,6.402-38.708,40.746-38.708,49.456c0,8.833,32.318,35.857,32.318,35.857l4.524-2.587
						c0.09-0.627,0.181-1.253,0.266-1.872c-3.365-5.69-16.712-28.514-16.151-31.612c6.914-8.591,19.04-20.56,19.04-20.56
						s1.364,21.494-2.889,52.172c0.484,0.818,0.762,1.284,0.762,1.284l-1.029,0.588c-2.982,20.653-8.51,45.257-18.645,70.196
						c0,0,18.1,4.054,39.547,6.497c9.256-48.277,14.341-111.578,14.948-125.609C209.378,171.491,205.019,146.446,205.019,146.446z"
						/>
					<path style="fill:#FFFFFF;" d="M283.772,114.125h-6.698c0,0-4.035,36.749-5.947,36.581c-1.802-0.158-20.114-1.893-30.876-2.799
						c-5.376-0.452-12.129-0.949-22.944-1.245c0.002,0.021,2.236,28.337,1.981,36.016c-0.148,4.455-2.539,80.414-6.915,130.517
						c10.909,0.536,21.624,0.297,30.384-1.396c0,0,6.729-95.004-0.386-140.349c0,0,33.8-1.318,40.902-4.249
						C291.391,163.872,283.772,114.125,283.772,114.125z"/>
				</g>
				<g>
					<polyline style="fill:#FFFFFF;" points="208.695,187.164 197.113,165.771 202.207,160.952 191.816,155.832 205.019,146.446 
											"/>
					<g>
						<g>
							<path style="fill:#CCEDEC;" d="M205.019,146.446c-1.551,0.983-3.495,2.259-5.762,3.78c-1.13,0.765-2.344,1.587-3.633,2.459
								c-1.472,1.016-3.029,2.09-4.661,3.216c3.118,1.565,6.638,3.331,10.34,5.188l-0.002,0.001h-0.001l-0.081,0.077
								c-0.217,0.205-0.44,0.416-0.664,0.628c-1.413,1.343-2.8,2.661-4.078,3.875c1.329,2.409,2.606,4.723,3.814,6.912
								c1.165,2.07,2.264,4.022,3.28,5.827c2.049,3.6,3.801,6.594,5.124,8.756c-1.087-2.29-2.637-5.393-4.531-9.077
								c-0.956-1.837-1.99-3.824-3.086-5.932c-1.054-1.99-2.169-4.093-3.33-6.283c1.105-1.04,2.304-2.169,3.526-3.318
								c0.636-0.602,1.268-1.201,1.836-1.739c-2.095-1.022-4.139-2.02-6.1-2.977c-0.874-0.421-1.73-0.834-2.564-1.236
								c-0.763-0.366-1.937-0.932-1.778-0.84c2.552-1.896,4.869-3.617,6.888-5.117C201.737,149.005,203.581,147.587,205.019,146.446
								z"/>
						</g>
					</g>
				</g>
				<polyline style="fill:none;stroke:#CCEDEC;stroke-width:0.75;stroke-miterlimit:10;" points="217.307,146.662 230.952,156.834 
					223.167,160.908 227.837,166.805 219.14,187.164 				"/>
				<path style="fill:#FFC6BB;" d="M168.376,237.535c0,0-2.15,2.98-2.329,3.808c-0.26,1.204,1.264,4.786,1.264,4.786l2.92-4.035
					L168.376,237.535z"/>
			</g>
			<path style="fill:#FF5555;" d="M187.786,147.876c0,0,3.09-2.649,7.481-0.966c0,0-1.46,7.213-2.755,7.843
				C191.216,155.383,187.786,147.876,187.786,147.876z"/>
			<path style="fill:#FF5555;" d="M237.33,147.67c0,0-3.456-1.885-6.913-0.468c0,0,1.439,7.013,2.786,7.526
				C234.549,155.241,237.33,147.67,237.33,147.67z"/>
		</g>
		<g>
			<path style="fill:#67D3AF;" d="M197.731,379.888l52.728,39.79c1.835,1.751,6.138,0.221,9.611-3.418
				c3.474-3.639,4.803-8.008,2.968-9.76l-42.791-50.2L197.731,379.888z"/>
			<g>
				<g>
					<g>
						<path style="fill:#B0F4DA;" d="M263.038,406.5c0.713,0.923,0.663,2.517-0.028,4.174c-0.673,1.67-1.88,3.457-3.444,5.104
							c-1.572,1.64-3.302,2.928-4.939,3.678c-1.623,0.767-3.213,0.891-4.168,0.222c0.323,0.457,0.976,0.884,1.802,1.001
							c0.822,0.129,1.767,0.017,2.721-0.277c1.916-0.593,3.898-1.891,5.594-3.66c1.689-1.776,2.893-3.816,3.396-5.757
							c0.25-0.967,0.318-1.916,0.15-2.731C263.967,407.434,263.51,406.802,263.038,406.5z"/>
					</g>
				</g>
			</g>
			<g>
				<path style="fill:#92EAC8;" d="M187.514,381.015c5.283,5.043,17.039,1.302,26.258-8.355c9.219-9.658,12.41-21.575,7.127-26.618
					L187.514,381.015z"/>
				<path style="fill:#E1FFF3;" d="M220.899,346.042c2.096,2.001-3.678,11.452-12.897,21.11
					c-9.219,9.658-18.392,15.865-20.488,13.863c-2.096-2.001,3.678-11.452,12.897-21.11
					C209.63,350.248,218.803,344.041,220.899,346.042z"/>
			</g>
		</g>
		<g>
			<path style="fill:#67D3AF;" d="M518.386,341.828l-31.291,58.176c-1.451,2.08,0.717,6.1,4.843,8.978
				c4.126,2.879,8.647,3.526,10.098,1.446l43.093-49.94L518.386,341.828z"/>
			<g>
				<g>
					<g>
						<path style="fill:#B0F4DA;" d="M502.036,410.428c-0.803,0.845-2.387,1.039-4.13,0.608c-1.753-0.41-3.703-1.331-5.569-2.626
							c-1.86-1.304-3.397-2.817-4.387-4.321c-1.006-1.487-1.37-3.04-0.855-4.085c-0.403,0.388-0.725,1.099-0.715,1.933
							c-0.003,0.832,0.252,1.749,0.688,2.647c0.878,1.803,2.463,3.564,4.47,4.97c2.013,1.398,4.213,2.278,6.208,2.479
							c0.994,0.099,1.942,0.022,2.722-0.267C501.254,411.488,501.81,410.94,502.036,410.428z"/>
					</g>
				</g>
			</g>
			<g>
				<path style="fill:#92EAC8;" d="M515.715,331.902c-4.179,5.99,1.309,17.039,12.259,24.678s23.214,8.977,27.393,2.988
					L515.715,331.902z"/>
				<path style="fill:#E1FFF3;" d="M555.367,359.568c-1.658,2.377-11.879-1.89-22.829-9.53c-10.95-7.64-18.482-15.76-16.823-18.137
					c1.658-2.377,11.879,1.89,22.829,9.53C549.493,349.072,557.025,357.191,555.367,359.568z"/>
			</g>
		</g>
		<polygon style="fill:#658D93;" points="245.84,429.992 192.481,422.465 247.554,412.141 		"/>
		<polygon style="fill:#658D93;" points="542.035,434.026 573.678,415.885 548.146,412.897 535.717,412.897 		"/>
		<path style="fill:#8BEAC3;" d="M555.558,426.273c0,0-64.092-76.583-178.918-75.035c-102.677,1.385-157.165,75.035-157.165,75.035
			l38.308,5.404l-14.855,7.751l58.776,11.626l59.422-14.532l64.304,10.293l-2.698-8.818l56.803,4.464l-3.914-8.746L529,441.499
			L555.558,426.273z"/>
		<g>
			<path style="fill:#FF5555;" d="M566.298,162.883c0,0,14.726,9.132,28.452,49.599c13.726,40.466,20.674,75.821,62.313,92.516
				c0,0-15.891,24.451-42.916,22.314c-16.069-1.27-32.643-4.289-44.807,5.793c-12.164,10.082-28.487,13.291-42.083,8.454
				c-24.74-8.803-38.143-1.018-38.143-1.018s-16.125-109.094,26.116-177.658H566.298z"/>
			<g>
				<path style="fill:#C8DADB;" d="M598.24,314.181l-42.858-84.459l-49.277,6.305l-14.052,84.652
					C492.052,320.679,534.803,307.072,598.24,314.181z"/>
				<path style="fill:#95B4BC;" d="M609.39,415.182c-3.551-0.624-9.176,0.731-9.176,0.731c-1.854,4.81-0.715,7.741-0.715,7.741
					s30.627,0.183,31.301-0.193C634.871,421.191,626.463,418.184,609.39,415.182z"/>
				<path style="fill:#3D4C91;" d="M609.39,415.182c-12.603-95.449-32.033-159.186-36.841-174.055
					c-19.372,4.07-53.995,1.185-62.158,0.42c-11.075,4.103-45.099,17.686-47.848,30.641c-2.531,11.925,19.212,69.754,30.139,102.111
					c0,0,4.359,1.448,9.016,0.393c0,0-10.456-78.324-8.142-88.33c2.646-11.444,48.71-19.131,48.71-19.131
					c24.184,66.501,57.948,148.683,57.948,148.683C605.373,416.778,609.794,415.254,609.39,415.182z"/>
				<path style="fill:#3D4C91;" d="M535.187,155.699l-16.773,13.067l-9.788,72.608c0,0,46.447,4.87,67.279-1.068l-18.637-76.222
					l-9.793-8.602L535.187,155.699z"/>
				<path style="fill:#95B4BC;" d="M492.682,374.299c3.555-0.601,9.016,0.393,9.016,0.393c1.823,4.822,0.833,8.151,0.833,8.151
					s-30.641-0.022-31.312-0.402C467.163,380.143,475.59,377.191,492.682,374.299z"/>
				<path style="fill:#FFC6BB;" d="M466.299,116.051c0.392,1.413,2.423,7.111,2.423,7.111c2.474,1.781,5.801,0.753,6.698,0
					c0,0,4.338-5.262,4.308-6.496c-0.034-1.413-1.328-3.736-1.328-3.736c-0.148-0.84-0.758-3.896-1.301-4.339
					c-1.411-1.149-3.456,0.61-3.728,0.63c-0.272,0.02-5.532,1.034-6.029,1.837C466.845,111.863,466.046,115.139,466.299,116.051z"/>
				<path style="fill:#FFC6BB;" d="M610.646,104.189c0.054,1.465-0.153,7.511-0.153,7.511c-1.818,2.447-5.299,2.477-6.383,2.031
					c0,0-5.729-3.699-6.075-4.884c-0.396-1.357,0.132-3.963,0.132-3.963c-0.114-0.845-0.459-3.943-0.076-4.529
					c0.997-1.523,3.479-0.466,3.743-0.53c0.265-0.063,5.585-0.692,6.303-0.077S610.61,103.243,610.646,104.189z"/>
				<g>
					<path style="fill:#E9F3F4;" d="M579.328,242.114c0.086,0.619,0.176,1.245,0.266,1.872l-1.029-0.588
						C578.565,243.397,578.844,242.932,579.328,242.114z"/>
					<path style="fill:#FFFFFF;" d="M572.24,154.754c-6.198,0-24.765,0.729-24.765,0.729c0,0.001-4.359,25.045-3.73,39.587
						c0.607,14.03,5.692,77.332,14.948,125.609c21.447-2.444,39.547-6.497,39.547-6.497c-28.241-96.2-22.176-134.612-22.176-134.612
						s41.206-8.224,44.618-13.625c2.842-4.499-10.189-54.245-10.189-54.245l-6.383,2.031c0,0-1.381,30.755-1.946,40.085
						C602.164,153.815,585.024,154.754,572.24,154.754z"/>
					<path style="fill:#FFFFFF;" d="M468.722,123.162h6.698c0,0,6.844,36.749,8.756,36.581c1.801-0.158,17.305-1.893,28.067-2.799
						c5.376-0.452,12.129-0.949,22.944-1.245c-0.002,0.021-17.556,33.281-24.796,85.848c-0.608,4.416,0.9,33.326,4.644,81.276
						c0,0-11.147,1.669-22.982-2.144c0,0,6.545-90.956,18.071-140.191c0,0-33.799-1.318-40.902-4.249
						C461.103,172.909,468.722,123.162,468.722,123.162z"/>
				</g>
				<g>
					<g>
						<g>
							<path style="fill:#CCEDEC;" d="M543.799,196.201c1.323-2.162,3.075-5.156,5.124-8.756c1.016-1.805,2.115-3.756,3.28-5.826
								c1.208-2.189,2.485-4.503,3.814-6.912c-1.279-1.215-2.666-2.533-4.079-3.876l-0.652-0.616
								c-0.159-0.15-0.069-0.065-0.094-0.088l-0.002-0.001c3.708-1.86,7.215-3.62,10.34-5.188c-1.632-1.126-3.189-2.201-4.661-3.216
								c-1.289-0.872-2.503-1.694-3.633-2.459c-2.267-1.521-4.212-2.796-5.762-3.78c1.438,1.141,3.282,2.559,5.463,4.201
								c2.019,1.5,4.336,3.221,6.888,5.117c0.16-0.092-1.017,0.476-1.779,0.841c-0.834,0.402-1.689,0.814-2.562,1.235
								c-1.96,0.956-4.002,1.952-6.1,2.977c0.599,0.567,1.215,1.151,1.835,1.738c1.222,1.15,2.421,2.279,3.527,3.319
								c-1.161,2.19-2.275,4.293-3.33,6.282c-1.096,2.107-2.13,4.094-3.086,5.932C546.436,190.808,544.886,193.911,543.799,196.201z
								"/>
						</g>
					</g>
				</g>
				<path style="fill:#3D4C91;" d="M510.391,241.547c-11.075,4.103-45.099,17.686-47.848,30.641
					c-2.531,11.925,19.212,69.754,30.139,102.111c0,0,4.359,1.448,9.016,0.393c0,0-10.456-78.324-8.142-88.33
					c2.346-10.148,38.824-17.34,47.061-18.84l-2.549-24.354C525.644,242.88,514.562,241.938,510.391,241.547z"/>
				<g>
					<path style="fill:#5A7BE2;" d="M526.026,129.509c0,0-10.664-12.207-8.441-21.445c0.722-3,8.028,2.24,10.233,3.301
						c0,0-1.059-3.977-0.13-4.33c1.947-0.739,8.394,4.081,10.152,5.596c0,0-1.187-3.053-0.584-3.586
						c1.712-1.516,9.995,3.676,10.729,4.282c0.734,0.606,5.9,1.686,7.368,3.353c1.468,1.667,2.51,14.593-4.815,23.2
						C541.483,150.521,526.026,129.509,526.026,129.509z"/>
					<path style="fill:#F4ABA4;" d="M535.187,155.292v-15.725h12.288v15.508l-6.023,10.517c-1.333,2.327-4.863,1.606-5.176-1.057
						L535.187,155.292z"/>
					<path style="fill:#FFC6BB;" d="M525.93,129.037c0,0,1.718,20.374,12.178,20.374c10.754,0,12.173-12.948,12.173-12.948
						s2.106-0.482,3.165-4.047c0.838-2.82-1.059-4.717-2.564-1.988c0,0-0.728,0.153-1.424-0.501c0,0,0.626-2.682-0.07-5.118
						c-0.696-2.435-16.84,4.662-22.824-1.809C526.565,123.001,525.575,125.04,525.93,129.037z"/>
					<g>
						<g>
							<g>
								<path style="fill:#F4958C;" d="M536.503,136.415c-0.405,0.042-0.988,0.141-1.612,0.075
									c-0.151-0.023-0.306-0.053-0.434-0.117c-0.067-0.023-0.126-0.072-0.173-0.101c-0.011-0.015-0.014-0.019-0.007-0.028
									c0.001,0.035,0.013-0.086,0.037-0.171c0.02-0.09,0.039-0.18,0.068-0.276c0.057-0.19,0.115-0.385,0.173-0.582
									c0.533-1.592,1.034-3.005,1.172-3.82c-0.518,0.645-1.28,1.946-1.837,3.607c-0.064,0.211-0.128,0.418-0.174,0.632
									c-0.027,0.103-0.045,0.214-0.062,0.323c-0.021,0.112-0.026,0.189-0.037,0.421l-0.006,0.139
									c0.025,0.035,0.069,0.062,0.102,0.092c0.071,0.057,0.143,0.123,0.21,0.17c0.119,0.065,0.22,0.119,0.333,0.147
									c0.219,0.07,0.427,0.074,0.617,0.069C535.634,136.935,536.165,136.649,536.503,136.415z"/>
							</g>
						</g>
					</g>
					<g>
						<path style="fill:#FFFFFF;" d="M539.083,133.106c0,1.003,0.813,1.816,1.816,1.816s1.816-0.813,1.816-1.816
							c0-1.003-0.813-1.816-1.816-1.816S539.083,132.103,539.083,133.106z"/>
						<path style="fill:#444444;" d="M541.048,134.069c0.562,0,1.018-0.456,1.018-1.018c0-0.562-0.456-1.018-1.018-1.018
							c-0.562,0-1.018,0.456-1.018,1.018C540.031,133.613,540.486,134.069,541.048,134.069z"/>
					</g>
					<g>
						<circle style="fill:#FFFFFF;" cx="530.407" cy="133.106" r="1.816"/>
						<path style="fill:#444444;" d="M530.556,134.178c0.562,0,1.018-0.456,1.018-1.018c0-0.562-0.456-1.018-1.018-1.018
							c-0.562,0-1.018,0.456-1.018,1.018C529.539,133.722,529.994,134.178,530.556,134.178z"/>
					</g>
					<path style="fill:none;stroke:#444444;stroke-width:0.5;stroke-linecap:round;stroke-miterlimit:10;" d="M542.974,130.775
						c0,0-1.517-1.04-3.494-0.182"/>
					<path style="fill:none;stroke:#444444;stroke-width:0.5;stroke-linecap:round;stroke-miterlimit:10;" d="M528.417,130.775
						c0,0,1.517-1.04,3.494-0.182"/>
					<path style="fill:#5A7BE2;" d="M527.703,137.997c0,0,12.806,0.349,19.772-0.442c0.532-0.621,1.322-3.895,1.604-4.346
						c0.282-0.451,1.367-0.226,1.587,0c0.22,0.226,0.282,6.863-0.957,11.763c-1.24,4.901-14.906,4.949-18.103,3.928
						C529.686,148.288,527.703,137.997,527.703,137.997z"/>
					<g>
						<g>
							<g>
								<path style="fill:#EA8181;" d="M532.64,139.63c0.409,0.47,1.463,1.179,2.883,1.206c1.417,0.029,2.526-0.678,2.876-1.206
									c-0.607,0.193-1.649,0.533-2.864,0.509C534.318,140.12,533.275,139.75,532.64,139.63z"/>
							</g>
						</g>
					</g>
				</g>
				<path style="fill:#FF5555;" d="M516.667,156.594c0,0,4.026-2.198,8.417-0.514c0,0-1.404,10.088-3.572,10.088
					C519.568,166.167,516.667,156.594,516.667,156.594z"/>
				<path style="fill:#FF5555;" d="M559,155.07c0,0,3.831-1.922,8.223-0.239c0,0-1.841,9.663-3.263,9.893
					C561.321,165.151,559,155.07,559,155.07z"/>
				<g>
					<polyline style="fill:#FFFFFF;" points="535.187,155.699 520.593,161.035 526.816,169.091 517.936,176.913 520.129,195.615 
											"/>
					<g>
						<g>
							<path style="fill:#CCEDEC;" d="M520.129,195.615c-0.126-2.053-0.341-4.746-0.631-7.924c-0.153-1.588-0.317-3.299-0.491-5.111
								c-0.179-1.732-0.368-3.563-0.566-5.473c2.154-1.878,4.468-3.897,6.866-5.989c0.75-0.662,1.493-1.318,2.219-1.958
								c-1.222-1.568-2.412-3.093-3.557-4.56c-0.527-0.669-1.043-1.325-1.548-1.965c-0.253-0.32-0.503-0.635-0.749-0.947l-0.3-0.375
								l-0.065-0.071c2.877-1.123,5.49-2.143,7.766-3.031c2.433-0.969,4.497-1.816,6.113-2.511
								c-1.683,0.512-3.807,1.195-6.291,2.024c-1.24,0.42-2.573,0.871-3.987,1.35c-1.589,0.554-3.27,1.141-5.031,1.755
								c1.893,2.491,4.001,5.265,6.228,8.195c-0.488,0.428-0.987,0.867-1.491,1.309c-2.509,2.231-4.931,4.384-7.184,6.387
								c0.27,2.078,0.529,4.07,0.774,5.954c0.25,1.804,0.486,3.506,0.705,5.086C519.363,190.918,519.777,193.588,520.129,195.615z"
								/>
						</g>
					</g>
				</g>
			</g>
		</g>
		<polygon style="fill:#658D93;" points="257.782,431.677 257.782,442.366 242.926,439.428 		"/>
		<polygon style="fill:#658D93;" points="475.618,433.714 473.338,441.973 479.533,442.46 		"/>
		<polygon style="fill:#658D93;" points="422.73,437.996 420.628,446.046 425.427,446.814 		"/>
		<path style="fill:#545454;" d="M137.03,353.719c0.967,0,1.809-0.263,2.261-0.653c-0.452-0.39-1.294-0.653-2.261-0.653V353.719z"/>
		<g>
			<path style="fill:#67D3AF;" d="M376.402,301.296l-0.082,66.057c-0.296,2.519,3.515,5.037,8.511,5.624s9.287-0.979,9.583-3.498
				l14.376-64.377L376.402,301.296z"/>
			<g>
				<g>
					<g>
						<path style="fill:#B0F4DA;" d="M394.413,369.478c-0.309,1.124-1.613,2.043-3.352,2.487c-1.739,0.467-3.893,0.577-6.149,0.317
							c-2.256-0.27-4.325-0.877-5.908-1.734c-1.589-0.835-2.644-2.032-2.684-3.196c-0.171,0.533-0.119,1.311,0.284,2.041
							c0.391,0.734,1.049,1.422,1.857,2.007c1.626,1.174,3.855,1.977,6.288,2.268c2.434,0.281,4.789,0.017,6.642-0.749
							c0.923-0.382,1.722-0.898,2.272-1.522C394.225,370.782,394.456,370.037,394.413,369.478z"/>
					</g>
				</g>
			</g>
			<g>
				<path style="fill:#92EAC8;" d="M369.357,293.81c-0.852,7.254,9.206,14.397,22.467,15.955
					c13.26,1.558,24.701-3.059,25.553-10.313L369.357,293.81z"/>
				<path style="fill:#E1FFF3;" d="M417.377,299.453c-0.338,2.878-11.362,3.948-24.622,2.39c-13.26-1.558-23.736-5.154-23.398-8.033
					c0.338-2.878,11.362-3.948,24.622-2.39C407.24,292.978,417.715,296.574,417.377,299.453z"/>
			</g>
		</g>
		<g>
			<path style="fill:#67D3AF;" d="M285.609,359.029l29.572,59.068c0.866,2.384,5.401,2.924,10.13,1.206
				c4.728-1.718,7.86-5.043,6.994-7.426l-16.045-63.982L285.609,359.029z"/>
			<g>
				<g>
					<g>
						<path style="fill:#B0F4DA;" d="M332.304,411.877c0.229,1.143-0.524,2.549-1.879,3.727c-1.344,1.198-3.219,2.263-5.353,3.043
							c-2.137,0.771-4.259,1.157-6.058,1.102c-1.795-0.033-3.275-0.629-3.833-1.652c0.086,0.553,0.482,1.226,1.17,1.697
							c0.679,0.481,1.575,0.8,2.561,0.96c1.98,0.32,4.332,0.037,6.637-0.795c2.302-0.841,4.287-2.134,5.6-3.65
							c0.653-0.755,1.135-1.576,1.348-2.38C332.721,413.126,332.593,412.356,332.304,411.877z"/>
					</g>
				</g>
			</g>
			<g>
				<path style="fill:#92EAC8;" d="M275.954,355.502c2.494,6.865,14.688,8.734,27.237,4.175
					c12.549-4.559,20.701-13.819,18.207-20.684L275.954,355.502z"/>
				
					<ellipse transform="matrix(0.9399 -0.3414 0.3414 0.9399 -100.6142 122.8474)" style="fill:#E1FFF3;" cx="298.676" cy="347.247" rx="24.175" ry="5.247"/>
			</g>
		</g>
		<g>
			<path style="fill:#67D3AF;" d="M437.398,355.851l-18.386,63.447c-0.982,2.338,1.981,5.814,6.619,7.762
				c4.638,1.949,9.194,1.633,10.177-0.705l31.654-57.872L437.398,355.851z"/>
			<g>
				<g>
					<g>
						<path style="fill:#B0F4DA;" d="M435.807,426.355c-0.608,0.995-2.116,1.516-3.91,1.461c-1.8-0.033-3.9-0.524-5.996-1.399
							c-2.092-0.885-3.913-2.041-5.196-3.304c-1.296-1.243-1.978-2.685-1.693-3.815c-0.312,0.464-0.478,1.227-0.293,2.04
							c0.172,0.814,0.613,1.657,1.228,2.443c1.237,1.579,3.156,2.968,5.413,3.922c2.261,0.945,4.597,1.343,6.59,1.122
							c0.992-0.111,1.903-0.386,2.605-0.833C435.265,427.556,435.694,426.903,435.807,426.355z"/>
					</g>
				</g>
			</g>
			<g>
				<path style="fill:#92EAC8;" d="M432.703,346.707c-2.829,6.733,4.856,16.385,17.165,21.557
					c12.309,5.172,24.581,3.906,27.41-2.827L432.703,346.707z"/>
				<path style="fill:#E1FFF3;" d="M477.278,365.436c-1.123,2.672-12.011,0.645-24.32-4.527
					c-12.309-5.172-21.378-11.531-20.255-14.202c1.123-2.672,12.011-0.645,24.32,4.527
					C469.332,356.406,478.401,362.764,477.278,365.436z"/>
			</g>
		</g>
		<g>
			<defs>
				<path id="SVGID_1_" d="M555.558,426.273c0,0-64.092-76.583-178.918-75.035c-102.677,1.385-157.165,75.035-157.165,75.035
					l38.308,5.404l-14.855,7.751l58.776,11.626l59.422-14.532l64.304,10.293l-2.698-8.818l56.803,4.464l-3.914-8.746L529,441.499
					L555.558,426.273z"/>
			</defs>
			<clipPath id="SVGID_00000105404913236229656810000010359884445471436929_">
				<use xlink:href="#SVGID_1_"  style="overflow:visible;"/>
			</clipPath>
			<g style="clip-path:url(#SVGID_00000105404913236229656810000010359884445471436929_);">
				<path style="fill:#67D3AF;" d="M495.021,423.417l-35.929,55.431c-1.616,1.955,0.217,6.138,4.095,9.343
					c3.877,3.205,8.331,4.219,9.947,2.264l47.021-46.261L495.021,423.417z"/>
				<g>
					<g>
						<g>
							<path style="fill:#B0F4DA;" d="M473.133,490.456c-0.869,0.777-2.463,0.841-4.165,0.269c-1.714-0.552-3.582-1.628-5.337-3.072
								c-1.748-1.451-3.156-3.085-4.02-4.664c-0.881-1.564-1.118-3.142-0.519-4.142c-0.433,0.354-0.812,1.036-0.87,1.869
								c-0.07,0.829,0.109,1.763,0.47,2.694c0.728,1.868,2.164,3.753,4.049,5.318c1.892,1.558,4.013,2.614,5.985,2.977
								c0.982,0.18,1.934,0.18,2.734-0.045C472.268,491.448,472.867,490.948,473.133,490.456z"/>
						</g>
					</g>
				</g>
				<g>
					<path style="fill:#92EAC8;" d="M493.168,413.306c-4.654,5.629-0.084,17.089,10.206,25.596
						c10.291,8.507,22.405,10.84,27.058,5.211L493.168,413.306z"/>
					
						<ellipse transform="matrix(0.6372 -0.7707 0.7707 0.6372 -144.7177 550.0151)" style="fill:#E1FFF3;" cx="511.801" cy="428.709" rx="5.247" ry="24.175"/>
				</g>
			</g>
			<g style="clip-path:url(#SVGID_00000105404913236229656810000010359884445471436929_);">
				<path style="fill:#67D3AF;" d="M359.695,418.61l11.056,65.125c0.133,2.533,4.313,4.372,9.337,4.109
					c5.024-0.264,8.989-2.531,8.856-5.063l3.316-65.879L359.695,418.61z"/>
				<g>
					<g>
						<g>
							<path style="fill:#B0F4DA;" d="M388.944,482.78c-0.115,1.16-1.245,2.286-2.885,3.017c-1.635,0.753-3.739,1.225-6.008,1.35
								c-2.269,0.114-4.411-0.135-6.116-0.713c-1.707-0.556-2.949-1.557-3.185-2.698c-0.079,0.554,0.103,1.313,0.624,1.964
								c0.509,0.658,1.273,1.225,2.169,1.665c1.8,0.883,4.133,1.299,6.58,1.176c2.447-0.133,4.723-0.791,6.421-1.858
								c0.845-0.532,1.546-1.176,1.983-1.883C388.979,484.097,389.081,483.323,388.944,482.78z"/>
						</g>
					</g>
				</g>
				<g>
					<path style="fill:#92EAC8;" d="M351.49,412.419c0.383,7.293,11.502,12.639,24.835,11.939c13.333-0.7,23.831-7.18,23.449-14.473
						L351.49,412.419z"/>
					<path style="fill:#E1FFF3;" d="M399.773,409.885c0.152,2.894-10.534,5.808-23.867,6.507c-13.333,0.7-24.265-1.079-24.417-3.973
						c-0.152-2.894,10.534-5.807,23.867-6.507C388.689,405.212,399.621,406.991,399.773,409.885z"/>
				</g>
			</g>
			<g style="clip-path:url(#SVGID_00000105404913236229656810000010359884445471436929_);">
				<path style="fill:#67D3AF;" d="M265.957,451.066l39.344,53.062c1.265,2.198,5.826,1.945,10.185-0.564
					c4.36-2.51,6.869-6.326,5.604-8.524l-26.87-60.242L265.957,451.066z"/>
				<g>
					<g>
						<g>
							<path style="fill:#B0F4DA;" d="M321.089,495.04c0.423,1.086-0.075,2.602-1.206,3.996c-1.117,1.412-2.779,2.786-4.746,3.923
								c-1.971,1.129-3.994,1.877-5.776,2.133c-1.774,0.278-3.334-0.053-4.061-0.964c0.18,0.53,0.686,1.124,1.446,1.469
								c0.752,0.356,1.69,0.516,2.688,0.503c2.005-0.027,4.273-0.713,6.399-1.931c2.122-1.227,3.853-2.844,4.884-4.564
								c0.513-0.857,0.846-1.748,0.915-2.577C321.716,496.198,321.457,495.462,321.089,495.04z"/>
						</g>
					</g>
				</g>
				<g>
					<path style="fill:#92EAC8;" d="M255.837,449.262c3.644,6.33,15.978,6.061,27.549-0.599
						c11.571-6.661,17.998-17.192,14.355-23.521L255.837,449.262z"/>
					<path style="fill:#E1FFF3;" d="M297.741,425.142c1.446,2.512-6.763,9.947-18.334,16.608
						c-11.571,6.661-22.124,10.024-23.57,7.513c-1.446-2.512,6.763-9.947,18.334-16.608
						C285.743,425.993,296.295,422.63,297.741,425.142z"/>
				</g>
			</g>
		</g>
		<g>
			<path style="fill:#91A9E8;" d="M354.533,369.263l-0.228,0.02c-0.972,0.083-1.827-0.637-1.911-1.609L326.098,63.262l3.748-0.322
				l26.296,304.412C356.225,368.324,355.505,369.18,354.533,369.263z"/>
			<g>
				<path style="fill:#5A7BE2;" d="M434.925,115.056c-33.082,19.955-70.539-11.065-103.621,8.891
					c-1.736-20.228-3.471-40.456-5.207-60.684c33.082-19.955,70.539,11.064,103.621-8.891
					C431.454,74.6,433.19,94.828,434.925,115.056z"/>
				<g>
					<path style="fill:#FFFFFF;" d="M403.736,91.726c1.093,12.736-8.365,22.548-21.265,20.27
						c-12.901-2.277-24.113-12.915-25.184-25.403c-1.093-12.736,8.365-22.548,21.266-20.27
						C391.453,68.6,402.665,79.238,403.736,91.726z"/>
					<path style="fill:#FF5555;" d="M395.658,86.009c-3.396-0.32-6.804-0.782-10.216-1.292c-0.287-3.344-0.574-6.688-0.861-10.031
						c-3.587-0.536-7.178-1.126-10.765-1.662c0.287,3.344,0.574,6.687,0.861,10.031c-3.412-0.51-6.82-0.971-10.216-1.292
						c0.302,3.515,0.603,7.03,0.905,10.545c3.396,0.32,6.804,0.782,10.216,1.292c0.287,3.344,0.574,6.688,0.861,10.031
						c3.587,0.536,7.178,1.126,10.765,1.662c-0.287-3.344-0.574-6.687-0.861-10.031c3.412,0.51,6.82,0.971,10.216,1.292
						C396.261,93.039,395.959,89.524,395.658,86.009z"/>
				</g>
			</g>
		</g>
	</g>
</g>
</svg>
