<?xml version="1.0" encoding="utf-8"?>
<!-- Generator: Adobe Illustrator 27.5.0, SVG Export Plug-In . SVG Version: 6.00 Build 0)  -->
<svg version="1.1" xmlns="http://www.w3.org/2000/svg" xmlns:xlink="http://www.w3.org/1999/xlink" x="0px" y="0px"
	 viewBox="0 0 500 500" style="enable-background:new 0 0 500 500;" xml:space="preserve">
<g id="BACKGROUND">
	<rect style="fill:#C2F5F5;" width="500" height="500"/>
</g>
<g id="OBJECTS">
	<g>
		<g>
			<g>
				<path style="fill:#69A2D1;" d="M79.67,371.62V189.66c0-4.74,3.84-8.58,8.58-8.58H400.1c4.74,0,8.58,3.84,8.58,8.58v181.96
					c0,4.74-3.84,8.58-8.58,8.58H88.24C83.51,380.2,79.67,376.36,79.67,371.62z"/>
				<path style="fill:#EBFFFD;" d="M402.16,195.82v156.82c0,4.73-3.84,8.57-8.57,8.57H94.74c-4.74,0-8.58-3.84-8.58-8.57V195.82
					c0-4.73,3.84-8.57,8.58-8.57h298.85C398.32,187.25,402.16,191.09,402.16,195.82z"/>
				<path style="fill:#69A2D1;" d="M236.42,187.6v-3.39h15.5v4.04c0,3.29-2.67,5.96-5.96,5.96h-2.93
					C239.38,194.21,236.42,191.25,236.42,187.6z"/>
				<circle style="fill:#3B507A;" cx="244.17" cy="188.75" r="1.5"/>
			</g>
			<g>
				<g>
					<path style="fill:#9FD9FB;" d="M155.51,303.3v-87.19c0-5.79,4.69-10.48,10.48-10.48h54.04c5.79,0,10.48,4.69,10.48,10.48v87.19
						c0,5.79-4.69,10.48-10.48,10.48h-54.04C160.2,313.79,155.51,309.09,155.51,303.3z"/>
					<g>
						<path style="fill:#718EC7;" d="M165.48,223.78L165.48,223.78c0-2.1,1.7-3.8,3.8-3.8h47.47c2.1,0,3.8,1.7,3.8,3.8l0,0
							c0,2.1-1.7,3.8-3.8,3.8h-47.47C167.18,227.58,165.48,225.88,165.48,223.78z"/>
						<path style="fill:#718EC7;" d="M165.48,247.08L165.48,247.08c0-2.1,1.7-3.8,3.8-3.8h47.47c2.1,0,3.8,1.7,3.8,3.8l0,0
							c0,2.1-1.7,3.8-3.8,3.8h-47.47C167.18,250.87,165.48,249.17,165.48,247.08z"/>
						<path style="fill:#718EC7;" d="M165.48,270.37L165.48,270.37c0-2.1,1.7-3.8,3.8-3.8h47.47c2.1,0,3.8,1.7,3.8,3.8l0,0
							c0,2.1-1.7,3.8-3.8,3.8h-47.47C167.18,274.17,165.48,272.47,165.48,270.37z"/>
						<path style="fill:#718EC7;" d="M165.48,293.66L165.48,293.66c0-2.1,1.7-3.8,3.8-3.8h47.47c2.1,0,3.8,1.7,3.8,3.8l0,0
							c0,2.1-1.7,3.8-3.8,3.8h-47.47C167.18,297.46,165.48,295.76,165.48,293.66z"/>
					</g>
				</g>
				<g>
					<path style="fill:#7DE3E3;" d="M257.81,341.45v-44.7c0-2.57,2.08-4.65,4.65-4.65h89.7c2.57,0,4.65,2.08,4.65,4.65v44.7
						c0,2.57-2.08,4.65-4.65,4.65h-89.7C259.9,346.1,257.81,344.01,257.81,341.45z"/>
					<g>
						<path style="fill:#EBFFFD;" d="M265.31,319.1L265.31,319.1c0-11.05,8.96-20.01,20.01-20.01l0,0
							c11.05,0,20.01,8.96,20.01,20.01l0,0c0,11.05-8.96,20.01-20.01,20.01l0,0C274.27,339.11,265.31,330.15,265.31,319.1z"/>
						<g>
							<rect x="310.81" y="302.67" style="fill:#EBFFFD;" width="39" height="2"/>
							<rect x="310.81" y="310.38" style="fill:#EBFFFD;" width="39" height="2"/>
							<rect x="310.81" y="318.1" style="fill:#EBFFFD;" width="39" height="2"/>
							<rect x="310.81" y="325.81" style="fill:#EBFFFD;" width="39" height="2"/>
							<rect x="310.81" y="333.52" style="fill:#EBFFFD;" width="39" height="2"/>
						</g>
					</g>
				</g>
				<g>
					<path style="fill:#98DDED;" d="M250,275.38V227.6c0-3.93,3.18-7.11,7.11-7.11h101.4c3.93,0,7.11,3.18,7.11,7.11v47.78
						c0,3.93-3.18,7.11-7.11,7.11h-101.4C253.18,282.49,250,279.31,250,275.38z"/>
					<g>
						<path style="fill:#65A8CF;" d="M262.33,252.25v-19.27c0-1.24,1.01-2.25,2.25-2.25h38.5c1.24,0,2.25,1.01,2.25,2.25v19.27
							c0,1.24-1.01,2.25-2.25,2.25h-38.5C263.34,254.5,262.33,253.49,262.33,252.25z"/>
						<path style="fill:#65A8CF;" d="M262.33,264.95v-0.5c0-1.24,1.01-2.25,2.25-2.25h38.5c1.24,0,2.25,1.01,2.25,2.25v0.5
							c0,1.24-1.01,2.25-2.25,2.25h-38.5C263.34,267.2,262.33,266.19,262.33,264.95z"/>
						<path style="fill:#65A8CF;" d="M310.81,269.34v-19.27c0-1.24,1.01-2.25,2.25-2.25h38.5c1.24,0,2.25,1.01,2.25,2.25v19.27
							c0,1.24-1.01,2.25-2.25,2.25h-38.5C311.82,271.59,310.81,270.59,310.81,269.34z"/>
						<path style="fill:#65A8CF;" d="M310.81,238.48L310.81,238.48c0-1.24,1.01-2.25,2.25-2.25h38.5c1.24,0,2.25,1.01,2.25,2.25l0,0
							c0,1.24-1.01,2.25-2.25,2.25h-38.5C311.82,240.73,310.81,239.72,310.81,238.48z"/>
					</g>
				</g>
			</g>
			<g style="opacity:0.5686;">
				<g>
					<path style="fill:#FFFFFF;" d="M402.16,315.27v37.37c0,4.73-3.84,8.57-8.57,8.57h-28.02L402.16,315.27z"/>
					<polygon style="fill:#FFFFFF;" points="402.16,219.02 402.16,273.38 332.21,361.21 288.92,361.21 					"/>
				</g>
				<g>
					<path style="fill:#FFFFFF;" d="M121.59,187.25l-35.43,44.49v-35.92c0-4.73,3.84-8.57,8.58-8.57H121.59z"/>
					<polygon style="fill:#FFFFFF;" points="151.73,187.25 86.16,269.58 86.16,255.48 140.5,187.25 					"/>
				</g>
			</g>
		</g>
		<g>
			<rect x="192.64" y="367.43" style="fill:#3B507A;" width="126" height="14"/>
			<rect x="323.64" y="367.43" style="fill:#3B507A;" width="24" height="14"/>
			<rect x="350" y="367.43" style="fill:#3B507A;" width="24" height="14"/>
			<rect x="377" y="367.43" style="fill:#3B507A;" width="24" height="14"/>
			<rect x="165" y="367.43" style="fill:#3B507A;" width="24" height="14"/>
			<path style="fill:#4474AB;" d="M60.3,372.24L60.3,372.24c0-1.3,1.05-2.35,2.35-2.35h363.03c1.3,0,2.35,1.05,2.35,2.35l0,0
				c0,11.45-9.28,20.73-20.73,20.73H81.03C69.58,392.97,60.3,383.69,60.3,372.24z"/>
		</g>
	</g>
	<g>
		
			<rect x="49.595" y="258.801" transform="matrix(0.9775 -0.2111 0.2111 0.9775 -57.5827 17.2168)" style="fill:#4474AB;" width="4.5" height="39.001"/>
		<path style="fill:#3B507A;" d="M55.25,316.52l-5.84-27.04c-0.25-1.17,0.49-2.33,1.66-2.58l5.04-1.09
			c1.17-0.25,2.33,0.49,2.58,1.66l5.84,27.04c0.25,1.17-0.49,2.33-1.66,2.58l-5.04,1.09C56.65,318.44,55.5,317.69,55.25,316.52z"/>
		<g>
			<circle style="fill:#718EC7;" cx="45.42" cy="248.54" r="21.5"/>
			<g>
				<path style="fill:#EBFFFD;" d="M62.04,244.95c1.98,9.18-3.85,18.22-13.03,20.21c-0.32,0.07-0.65,0.13-0.97,0.18
					c-4.81,0.75-9.5-0.6-13.1-3.41c-2.29-1.78-4.12-4.15-5.25-6.95c-0.38-0.9-0.68-1.86-0.89-2.85
					c-1.86-8.62,3.17-17.11,11.39-19.76c0.53-0.18,1.09-0.33,1.64-0.45c2.4-0.52,4.8-0.51,7.05-0.02c4.57,0.95,8.61,3.77,11.06,7.8
					C60.91,241.28,61.63,243.05,62.04,244.95z"/>
				<path style="fill:#FFFFFF;" d="M40.19,232.37L29.7,254.98c-0.38-0.9-0.68-1.86-0.89-2.85
					C26.94,243.51,31.97,235.02,40.19,232.37z"/>
				<path style="fill:#FFFFFF;" d="M59.95,239.71l-11.91,25.63c-4.81,0.75-9.5-0.6-13.1-3.41l13.95-30.02
					C53.46,232.85,57.5,235.67,59.95,239.71z"/>
			</g>
		</g>
	</g>
	<g>
		<path style="fill:#9FD9FB;" d="M454.43,88.07v71.82c0,4.1-3.33,7.44-7.44,7.44H320.87c-4.12,0-7.45-3.33-7.45-7.44V88.07
			c0-0.07,0-0.15,0.01-0.22c0.1-4,3.39-7.22,7.44-7.22h126.12c4.03,0,7.32,3.22,7.43,7.22C454.43,87.92,454.43,88,454.43,88.07z"/>
		<g>
			<g>
				<path style="fill:#718EC7;" d="M372.34,108.4l-19.68,18.43l25.84,7.44c0.71-2.38,1.08-4.92,1.08-7.52
					C379.58,119.66,376.84,113.2,372.34,108.4z"/>
				<path style="fill:#668AD1;" d="M324.26,120.16c-0.59,2.22-0.91,4.54-0.91,6.94c0,14.85,12.04,26.9,26.9,26.9
					c4.18,0,8.12-0.95,11.66-2.65l-11.67-24.17L324.26,120.16z"/>
				<path style="fill:#5767B5;" d="M361.91,151.36h0.01c6.8-3.29,12.03-9.36,14.16-16.73l-25.84-7.44L361.91,151.36z"/>
				<path style="fill:#8CAEDE;" d="M369.92,108.76c-4.91-5.26-11.9-8.56-19.66-8.56c-12.46,0-22.93,8.46-25.99,19.96l25.98,7.03
					L369.92,108.76z"/>
			</g>
			<g>
				<g>
					<circle style="fill:#718EC7;" cx="389.29" cy="102.95" r="1.58"/>
					
						<line style="fill:none;stroke:#718EC7;stroke-linecap:round;stroke-linejoin:round;stroke-miterlimit:10;" x1="397.02" y1="102.95" x2="441.38" y2="102.95"/>
					
						<line style="fill:none;stroke:#718EC7;stroke-linecap:round;stroke-linejoin:round;stroke-miterlimit:10;" x1="397.02" y1="108.46" x2="441.38" y2="108.46"/>
				</g>
				<g>
					<circle style="fill:#718EC7;" cx="389.29" cy="114.04" r="1.58"/>
					
						<line style="fill:none;stroke:#718EC7;stroke-linecap:round;stroke-linejoin:round;stroke-miterlimit:10;" x1="397.02" y1="114.04" x2="441.38" y2="114.04"/>
					
						<line style="fill:none;stroke:#718EC7;stroke-linecap:round;stroke-linejoin:round;stroke-miterlimit:10;" x1="397.02" y1="119.56" x2="441.38" y2="119.56"/>
				</g>
				<g>
					<circle style="fill:#718EC7;" cx="389.29" cy="125.14" r="1.58"/>
					
						<line style="fill:none;stroke:#718EC7;stroke-linecap:round;stroke-linejoin:round;stroke-miterlimit:10;" x1="397.02" y1="125.14" x2="441.38" y2="125.14"/>
					
						<line style="fill:none;stroke:#718EC7;stroke-linecap:round;stroke-linejoin:round;stroke-miterlimit:10;" x1="397.02" y1="130.65" x2="441.38" y2="130.65"/>
				</g>
				<g>
					<circle style="fill:#718EC7;" cx="389.29" cy="136.24" r="1.58"/>
					
						<line style="fill:none;stroke:#718EC7;stroke-linecap:round;stroke-linejoin:round;stroke-miterlimit:10;" x1="397.02" y1="136.24" x2="441.38" y2="136.24"/>
					
						<line style="fill:none;stroke:#718EC7;stroke-linecap:round;stroke-linejoin:round;stroke-miterlimit:10;" x1="397.02" y1="141.75" x2="441.38" y2="141.75"/>
				</g>
				<g>
					<circle style="fill:#718EC7;" cx="389.29" cy="147.34" r="1.58"/>
					
						<line style="fill:none;stroke:#718EC7;stroke-linecap:round;stroke-linejoin:round;stroke-miterlimit:10;" x1="397.02" y1="147.34" x2="441.38" y2="147.34"/>
					
						<line style="fill:none;stroke:#718EC7;stroke-linecap:round;stroke-linejoin:round;stroke-miterlimit:10;" x1="397.02" y1="152.85" x2="441.38" y2="152.85"/>
				</g>
			</g>
		</g>
		<g>
			<path style="fill:#3B507A;" d="M454.42,87.85H313.44c0.1-4,3.39-7.22,7.44-7.22H447C451.02,80.63,454.31,83.85,454.42,87.85z"/>
			<g>
				<circle style="fill:#FFFFFF;" cx="425.94" cy="84.24" r="2.09"/>
				<circle style="fill:#FFFFFF;" cx="434.14" cy="84.24" r="2.09"/>
				<circle style="fill:#FFFFFF;" cx="442.34" cy="84.24" r="2.09"/>
			</g>
		</g>
	</g>
	<g>
		<g>
			<path style="fill:#9FD9FB;" d="M288.34,69.5v73.85c0,4.22-3.43,7.65-7.65,7.65H151c-4.23,0-7.66-3.43-7.66-7.65V69.5
				c0-0.08,0-0.15,0.01-0.23c0.11-4.11,3.49-7.42,7.65-7.42h129.69c4.15,0,7.53,3.31,7.64,7.42
				C288.34,69.35,288.34,69.42,288.34,69.5z"/>
			<g>
				<path style="fill:#3B507A;" d="M288.33,69.27H143.35c0.11-4.11,3.49-7.42,7.65-7.42h129.69
					C284.84,61.85,288.22,65.16,288.33,69.27z"/>
				<g>
					<circle style="fill:#FFFFFF;" cx="259.05" cy="65.56" r="2.15"/>
					<circle style="fill:#FFFFFF;" cx="267.48" cy="65.56" r="2.15"/>
					<circle style="fill:#FFFFFF;" cx="275.92" cy="65.56" r="2.15"/>
				</g>
			</g>
		</g>
		<g>
			<g>
				<rect x="166.59" y="80.73" style="fill:#668AD1;" width="3.76" height="55.5"/>
				<rect x="176.93" y="90" style="fill:#8CAEDE;" width="3.76" height="46.23"/>
				<rect x="187.26" y="100.78" style="fill:#668AD1;" width="3.76" height="35.44"/>
				<rect x="197.6" y="108.48" style="fill:#8CAEDE;" width="3.76" height="27.75"/>
				<rect x="207.94" y="95.41" style="fill:#668AD1;" width="3.76" height="40.82"/>
				<rect x="218.27" y="100.78" style="fill:#8CAEDE;" width="3.76" height="35.44"/>
				<rect x="228.61" y="106.42" style="fill:#668AD1;" width="3.76" height="29.81"/>
				<rect x="238.95" y="115.84" style="fill:#8CAEDE;" width="3.76" height="20.38"/>
				<rect x="249.28" y="106.42" style="fill:#668AD1;" width="3.76" height="29.81"/>
				<rect x="259.62" y="123.34" style="fill:#8CAEDE;" width="3.76" height="12.89"/>
			</g>
			<g>
				<rect x="161.33" y="76.62" style="fill:#5767B5;" width="1.07" height="58.54"/>
				<rect x="161.332" y="135.149" style="fill:#5767B5;" width="109.02" height="1.07"/>
			</g>
		</g>
	</g>
	<g>
		<path style="fill:#7DE3E3;" d="M45.42,162.06V120.5c0-5.61,4.55-10.16,10.16-10.16h62.68c5.61,0,10.16,4.55,10.16,10.16v41.56
			c0,5.61-4.55,10.16-10.16,10.16H55.58C49.97,172.21,45.42,167.67,45.42,162.06z"/>
		<path style="fill:#EBFFFD;" d="M109.71,145.13c1.31-7.72-2.6-16.24-8.71-18.95c-6.1-2.71-13.63,0.74-16.74,7.66
			c-3.56-5.5-10.27-7.59-15.28-4.57c-5.01,3.02-7.68,10.78-5.93,17.21c-6.15-4.4-9.4,3.32-9.29,5.37c0.17,3.03,2.27,5.35,4.77,5.36
			c11.17,0.02,43.87,0.07,56.95,0.08c3.86,0,5.98-5.48,3.49-9.05c-0.23-0.34-0.49-0.65-0.76-0.94
			C115.97,144.87,112.56,144.15,109.71,145.13z"/>
	</g>
	<g>
		<path style="fill:#5767B5;" d="M435.36,225.95c-0.08-1.84-0.42-3.64-0.98-5.35c-1.14-3.52-3.18-6.68-5.92-9.14
			c-1.33-1.22-2.83-2.26-4.47-3.1c-1.6-0.82-3.33-1.45-5.17-1.84c-1.84-0.39-3.68-0.54-5.47-0.44c-1.84,0.09-3.64,0.43-5.35,0.99
			c-3.51,1.13-6.67,3.17-9.14,5.9c-1.21,1.33-2.26,2.83-3.09,4.48c-0.83,1.6-1.46,3.33-1.85,5.18c-0.4,1.85-0.54,3.68-0.44,5.47
			c0.09,1.84,0.42,3.64,0.99,5.35c1.12,3.51,3.16,6.66,5.9,9.14c1.34,1.21,2.84,2.26,4.48,3.1c1.6,0.82,3.34,1.45,5.17,1.84
			c1.85,0.4,3.68,0.54,5.47,0.44c1.84-0.09,3.64-0.43,5.36-0.98c3.51-1.13,6.68-3.18,9.14-5.92c1.22-1.33,2.26-2.83,3.1-4.47
			c0.82-1.6,1.45-3.33,1.84-5.17C435.33,229.59,435.47,227.75,435.36,225.95z M412.63,235.42c-0.28-0.06-0.55-0.13-0.81-0.22
			c-1.66-0.52-3.07-1.54-4.1-2.83c-0.35-0.44-0.65-0.9-0.91-1.4c-0.77-1.46-1.11-3.16-0.9-4.91c0.02-0.27,0.07-0.55,0.13-0.82
			c0.06-0.28,0.13-0.55,0.22-0.81c0.52-1.67,1.54-3.08,2.84-4.11c0.43-0.35,0.9-0.65,1.39-0.9c1.47-0.77,3.17-1.1,4.91-0.9
			c0.28,0.02,0.55,0.07,0.82,0.13c0.27,0.06,0.55,0.13,0.8,0.22c1.68,0.53,3.09,1.53,4.11,2.83c0.35,0.43,0.65,0.9,0.9,1.39
			c0.77,1.47,1.11,3.17,0.91,4.91c-0.02,0.28-0.07,0.55-0.13,0.83c-0.06,0.27-0.13,0.55-0.22,0.8c-0.53,1.68-1.53,3.09-2.83,4.11
			c-0.44,0.35-0.9,0.65-1.4,0.91c-1.46,0.76-3.16,1.11-4.9,0.9C413.18,235.53,412.91,235.48,412.63,235.42z"/>
		<path style="fill:#5767B5;" d="M426.05,198.82l-4.91,22.88c-1.02-1.3-2.43-2.31-4.11-2.83c-0.25-0.09-0.53-0.16-0.8-0.22
			c-0.27-0.06-0.54-0.11-0.82-0.13c-1.74-0.21-3.44,0.13-4.91,0.9l4.91-22.88L426.05,198.82z"/>
		<path style="fill:#5767B5;" d="M418.36,234.65l-4.91,22.88l-10.64-2.28l4.91-22.88c1.03,1.29,2.44,2.31,4.1,2.83
			c0.26,0.1,0.53,0.16,0.81,0.22s0.55,0.11,0.83,0.13C415.2,235.76,416.9,235.41,418.36,234.65z"/>
		<path style="fill:#5767B5;" d="M405.91,226.05c-0.21,1.75,0.13,3.45,0.9,4.91l-22.88-4.91l2.29-10.65l22.89,4.91
			c-1.3,1.03-2.32,2.44-2.84,4.11c-0.1,0.26-0.16,0.53-0.22,0.81C405.98,225.5,405.93,225.78,405.91,226.05z"/>
		<path style="fill:#5767B5;" d="M444.93,228l-2.29,10.65l-22.88-4.91c1.3-1.02,2.31-2.43,2.83-4.11c0.09-0.25,0.16-0.53,0.22-0.8
			c0.06-0.28,0.11-0.55,0.13-0.83c0.21-1.74-0.14-3.44-0.91-4.91L444.93,228z"/>
		<path style="fill:#5767B5;" d="M415.41,218.52c-1.74-0.21-3.44,0.13-4.91,0.9c-0.49,0.25-0.97,0.55-1.39,0.9
			c-1.3,1.03-2.32,2.44-2.84,4.11l-3.54-5.48l-3.86-5.97l-5.31-8.21l9.14-5.92l5.31,8.22l3.86,5.97L415.41,218.52z"/>
		<path style="fill:#5767B5;" d="M435.3,249.29l-9.14,5.92l-9.17-14.18l-3.54-5.47c1.74,0.21,3.44-0.14,4.9-0.9
			c0.5-0.25,0.97-0.55,1.4-0.91c1.3-1.02,2.31-2.43,2.83-4.11l3.54,5.48L435.3,249.29z"/>
		<path style="fill:#5767B5;" d="M411.82,235.2l-5.47,3.54l-5.98,3.86l-8.21,5.31l-5.9-9.14l8.21-5.31l5.97-3.86l5.48-3.54
			c-0.21,1.75,0.13,3.45,0.9,4.91c0.25,0.5,0.55,0.97,0.91,1.4C408.74,233.66,410.15,234.68,411.82,235.2z"/>
		<path style="fill:#5767B5;" d="M442.59,215.3L422.94,228c0.21-1.74-0.14-3.44-0.91-4.91c-0.25-0.49-0.55-0.96-0.9-1.39
			c-1.02-1.3-2.43-2.31-4.11-2.83l5.48-3.54l5.97-3.86l8.22-5.31L442.59,215.3z"/>
	</g>
	<g>
		<g>
			<g>
				
					<ellipse transform="matrix(0.9738 -0.2274 0.2274 0.9738 -64.2628 104.2211)" style="fill:#7DB0D1;" cx="420.181" cy="331.006" rx="28.37" ry="36.83"/>
			</g>
			<g>
				
					<ellipse transform="matrix(0.9738 -0.2274 0.2274 0.9738 -63.925 105.159)" style="fill:#9FD9FB;" cx="424.431" cy="330.016" rx="28.37" ry="36.83"/>
				
					<ellipse transform="matrix(0.9738 -0.2274 0.2274 0.9738 -63.9261 105.1616)" style="fill:#668AD1;" cx="424.431" cy="330.016" rx="23.84" ry="30.94"/>
				
					<ellipse transform="matrix(0.9738 -0.2274 0.2274 0.9738 -63.9255 105.1602)" style="fill:#9FD9FB;" cx="424.431" cy="330.016" rx="17.79" ry="23.1"/>
				
					<ellipse transform="matrix(0.9738 -0.2274 0.2274 0.9738 -63.9263 105.1619)" style="fill:#668AD1;" cx="424.431" cy="330.016" rx="12.76" ry="16.56"/>
				<path style="fill:#9FD9FB;" d="M422.648,322.381c3.248-0.759,6.68,2.045,7.665,6.261c0.985,4.216-0.851,8.249-4.099,9.008
					c-3.248,0.759-6.68-2.045-7.665-6.261C417.565,327.173,419.4,323.14,422.648,322.381z"/>
			</g>
		</g>
		<g>
			<g>
				<path style="fill:#9FD9FB;" d="M481.74,306.24l-8.21,5.78c-3.26,2.3-7.79,2.53-12.64,0.64l-4.8-1.87l13.3-9.37L481.74,306.24z"
					/>
				<path style="fill:#9FD9FB;" d="M468.21,287.03l-8.21,5.78c-3.26,2.3-5,6.49-4.86,11.69l0.15,5.15l13.3-9.37L468.21,287.03z"/>
			</g>
			
				<rect x="420.436" y="315.12" transform="matrix(0.8175 -0.5759 0.5759 0.8175 -100.35 315.2459)" style="fill:#5767B5;" width="53.659" height="1.7"/>
		</g>
	</g>
	<g>
		<circle style="fill:#FFB84D;" cx="215.84" cy="363.71" r="22.5"/>
		<circle style="fill:none;stroke:#E38424;stroke-width:2;stroke-miterlimit:10;" cx="215.84" cy="363.71" r="18.31"/>
		<g>
			<path style="fill:#FFD787;" d="M224.21,367.88c0-3.75-3.01-4.94-5.97-5.68v-4.97c1.21,0.24,2.45,0.69,3.67,1.39l1.44-3.54
				c-1.41-0.89-3.22-1.45-5.11-1.67v-3.18h-1.5v3.08c-0.13,0-0.25-0.01-0.38-0.01c-0.5,0-0.96,0.03-1.42,0.07v-3.14h-1.5v3.36
				c-3.75,0.8-5.57,3.2-5.57,5.99c0,3.62,2.74,4.88,5.57,5.65v4.93c-1.65-0.34-3.22-1-4.39-1.86l-1.58,3.51
				c1.37,1.06,3.58,1.86,5.97,2.18v3.22h1.5v-3.1c0.24,0.01,0.48,0.03,0.73,0.03c0.37,0,0.73-0.01,1.07-0.04v3.11h1.5v-3.3
				C222.25,373.17,224.21,370.7,224.21,367.88z M216.33,357.04c0.14,0,0.27,0.01,0.41,0.01v4.79c-0.64-0.15-1.25-0.29-1.8-0.45
				v-4.25C215.35,357.07,215.81,357.04,216.33,357.04z M212.5,359.34c0-0.65,0.29-1.24,0.94-1.66v3.11
				C212.86,360.44,212.5,359.98,212.5,359.34z M215.7,370.39c-0.25,0-0.5-0.01-0.76-0.03v-4.77c0.63,0.15,1.24,0.29,1.8,0.44v4.31
				C216.42,370.37,216.08,370.39,215.7,370.39z M218.24,369.99v-3.45c0.82,0.38,1.34,0.89,1.34,1.69
				C219.58,368.98,219.17,369.6,218.24,369.99z"/>
		</g>
	</g>
	<g>
		<path style="fill:#5767B5;" d="M339.14,410.51c-0.06-1.39-0.32-2.74-0.74-4.03c-0.86-2.65-2.4-5.04-4.46-6.89
			c-1-0.92-2.13-1.7-3.37-2.33c-1.21-0.62-2.51-1.09-3.9-1.39c-1.38-0.3-2.77-0.4-4.13-0.33c-1.39,0.07-2.75,0.32-4.03,0.74
			c-2.65,0.85-5.03,2.39-6.9,4.45c-0.91,1-1.7,2.13-2.33,3.37c-0.63,1.2-1.1,2.51-1.4,3.91c-0.3,1.39-0.4,2.77-0.33,4.13
			c0.07,1.39,0.32,2.74,0.74,4.03c0.84,2.64,2.38,5.03,4.45,6.9c1.01,0.92,2.14,1.7,3.38,2.34c1.21,0.62,2.52,1.09,3.9,1.39
			c1.39,0.3,2.77,0.4,4.13,0.33c1.39-0.07,2.75-0.32,4.04-0.74c2.65-0.85,5.04-2.4,6.89-4.46c0.92-1,1.7-2.13,2.33-3.37
			c0.62-1.21,1.09-2.51,1.39-3.9C339.11,413.26,339.22,411.87,339.14,410.51z M321.99,417.65c-0.21-0.05-0.41-0.1-0.61-0.17
			c-1.25-0.39-2.32-1.16-3.09-2.13c-0.27-0.33-0.49-0.68-0.68-1.06c-0.58-1.1-0.83-2.38-0.68-3.7c0.01-0.2,0.05-0.42,0.1-0.62
			c0.05-0.21,0.1-0.41,0.17-0.61c0.4-1.26,1.16-2.32,2.14-3.1c0.32-0.26,0.68-0.49,1.05-0.68c1.11-0.58,2.39-0.83,3.7-0.68
			c0.21,0.02,0.42,0.05,0.62,0.1c0.2,0.04,0.41,0.1,0.6,0.17c1.27,0.4,2.33,1.15,3.1,2.14c0.26,0.33,0.49,0.68,0.68,1.05
			c0.58,1.11,0.84,2.39,0.68,3.7c-0.02,0.21-0.05,0.42-0.1,0.63c-0.04,0.2-0.1,0.41-0.17,0.6c-0.4,1.27-1.15,2.33-2.14,3.1
			c-0.33,0.27-0.68,0.49-1.06,0.68c-1.1,0.57-2.38,0.83-3.7,0.68C322.41,417.74,322.2,417.7,321.99,417.65z"/>
		<path style="fill:#5767B5;" d="M332.11,390.05l-3.7,17.25c-0.77-0.98-1.83-1.74-3.1-2.14c-0.19-0.07-0.4-0.12-0.6-0.17
			c-0.2-0.04-0.41-0.08-0.62-0.1c-1.31-0.16-2.59,0.1-3.7,0.68l3.7-17.25L332.11,390.05z"/>
		<path style="fill:#5767B5;" d="M326.31,417.07l-3.7,17.25l-8.03-1.72l3.7-17.25c0.78,0.98,1.84,1.74,3.09,2.13
			c0.2,0.07,0.4,0.12,0.61,0.17c0.21,0.05,0.42,0.08,0.63,0.1C323.93,417.91,325.21,417.65,326.31,417.07z"/>
		<path style="fill:#5767B5;" d="M316.93,410.59c-0.16,1.32,0.1,2.6,0.68,3.7l-17.26-3.7l1.72-8.03l17.26,3.7
			c-0.98,0.77-1.75,1.84-2.14,3.1c-0.07,0.2-0.12,0.4-0.17,0.61C316.98,410.17,316.94,410.39,316.93,410.59z"/>
		<path style="fill:#5767B5;" d="M346.35,412.06l-1.72,8.03l-17.25-3.7c0.98-0.77,1.74-1.83,2.14-3.1c0.07-0.19,0.12-0.4,0.17-0.6
			c0.05-0.21,0.08-0.42,0.1-0.63c0.16-1.31-0.1-2.6-0.68-3.7L346.35,412.06z"/>
		<path style="fill:#5767B5;" d="M324.09,404.91c-1.31-0.16-2.59,0.1-3.7,0.68c-0.37,0.19-0.73,0.42-1.05,0.68
			c-0.98,0.77-1.75,1.84-2.14,3.1l-2.67-4.13l-2.91-4.5l-4-6.19l6.89-4.46l4.01,6.2l2.91,4.5L324.09,404.91z"/>
		<path style="fill:#5767B5;" d="M339.09,428.11l-6.89,4.46l-6.92-10.7l-2.67-4.12c1.31,0.16,2.6-0.1,3.7-0.68
			c0.38-0.19,0.73-0.42,1.06-0.68c0.98-0.77,1.74-1.83,2.14-3.1l2.67,4.13L339.09,428.11z"/>
		<path style="fill:#5767B5;" d="M321.38,417.49l-4.12,2.67l-4.51,2.91l-6.19,4l-4.45-6.9l6.19-4l4.5-2.91l4.13-2.67
			c-0.16,1.32,0.1,2.6,0.68,3.7c0.19,0.38,0.42,0.73,0.68,1.06C319.06,416.33,320.13,417.09,321.38,417.49z"/>
		<path style="fill:#5767B5;" d="M344.59,402.48l-14.82,9.58c0.16-1.31-0.1-2.6-0.68-3.7c-0.19-0.37-0.42-0.72-0.68-1.05
			c-0.77-0.98-1.83-1.74-3.1-2.14l4.13-2.67l4.5-2.91l6.2-4.01L344.59,402.48z"/>
	</g>
	<g>
		<g>
			<g>
				<g>
					<g>
						<path style="fill:#FDA492;" d="M204.98,286.4c-0.02-1.19-0.14-2.42-0.75-3.44c-0.61-1.02-1.84-1.76-2.99-1.45
							c-0.3-1.24-0.4-2.24-0.91-3.05c-0.51-0.82-1.57-1.38-2.46-1c-0.06-1.06-0.83-2.07-1.82-2.55c-0.55-0.26-1.15-0.37-1.76-0.37
							c1.61-3.21,2.98-6.55,4.08-9.97c0.19-0.58,0.37-1.19,0.27-1.79s-0.59-1.18-1.19-1.18c-0.64,0-1.1,0.6-1.45,1.14
							c-5.4,8.23-17.09,25.49-18.02,26.71c3.26,2.57,4.76,5.11,8.07,7.28c5.33-0.51,11.97-5.61,14.24-10.64
							c1.25-0.12,1.03,3.14,0.9,4.18c-0.05,0.44-0.16,0.89-0.14,1.33c0.02,0.45,0.2,0.92,0.58,1.15c0.7,0.42,1.58-0.17,2.05-0.84
							C204.81,290.35,205.02,288.32,204.98,286.4z"/>
					</g>
					<path style="fill:none;stroke:#CC565E;stroke-linecap:round;stroke-miterlimit:10;" d="M184.41,282.59
						c2.81-1.53,5.63-3.05,8.44-4.58c0.53-0.29,1.16-0.58,1.71-0.33c0.42,0.19,0.65,0.67,0.67,1.13c0.02,0.46-0.14,0.91-0.33,1.33
						c-0.73,1.6-1.93,2.99-3.31,4.18c0.68,2.69-0.45,5.74-2.71,7.33"/>
					<path style="fill:none;stroke:#CC565E;stroke-linecap:round;stroke-miterlimit:10;" d="M197.9,278.32
						c-0.14,1.17-0.28,2.34-0.64,3.46c-0.37,1.12-0.98,2.18-1.91,2.9c-0.93,0.72-2.21,1.03-3.32,0.64"/>
					<path style="fill:none;stroke:#CC565E;stroke-linecap:round;stroke-miterlimit:10;" d="M201.19,282.32
						c-0.12,1.39-0.39,2.78-1.02,4.03c-0.62,1.25-1.63,2.34-2.92,2.87c-0.59,0.24-1.41,0.29-1.74-0.25
						c-0.18-0.29-0.15-0.65-0.12-0.99c0.09-0.99,0.18-1.97,0.26-2.96"/>
				</g>
				<path style="fill:#FDA492;" d="M184.85,287.57l-6.72,1.7L152.4,306.3l-7.95,0.95l-3.59,15.14c0,0,8.38,5.37,12.7,4.57
					c4.84-0.89,33.2-30.95,33.2-30.95L184.85,287.57z"/>
			</g>
			<path style="fill:#FFE9A6;" d="M129.53,283.5c1.38,0.95,2.79,1.84,4.34,2.79c3.69,2.27,7.04,5.05,9.96,8.25
				c3.19,3.5,6.45,7.03,9.93,10.67c-1.98,8.06-6.3,15.52-12.46,21.04c-2.34-0.84-12.58-6.23-12.58-6.23s0.55-5.27,0.48-6.74
				C128.71,303.75,128.63,294.2,129.53,283.5z"/>
		</g>
		<g>
			<g>
				<path style="fill:#3D2A2B;" d="M110.51,446.39c-2.67-6.68-4.72-16.67-5.4-23.74c0.9-1.76,1.46-1.96,2.54-3.01
					c-1.33-0.05-2.44-0.16-3.77-0.21c-1.52-3.54-2.06-8.44-1.13-11.59c7.45-1.79,13.9-2.34,20.7-2.1c0.85,4.55,1.7,9.11,2.13,15.6
					c-2.25,2.69-4.23,5.27-5.92,9.13c0.16,2.65,0.08,4.92,0.18,7.3c0.1,2.51-0.85,4.95-2.66,6.6
					C115.32,446.09,113.29,447.19,110.51,446.39z"/>
				<path style="fill:#6B4F4B;" d="M124.25,346.28c0,0,52.7,7.51,53.54,18.84c1.47,19.74-52.89,58.67-52.89,58.67l-10.96-18.96
					l29.85-31.32l-27.63-15.11L124.25,346.28z"/>
			</g>
			<g>
				<path style="fill:#3D2A2B;" d="M158.75,471.95c-6.22-3.62-13.99-10.22-18.89-15.36c-0.37-1.94-0.06-2.44,0.15-3.94
					c-1.08,0.78-2.02,1.38-3.1,2.16c-3.38-1.85-6.82-5.37-8.03-8.43c4.77-6,9.51-10.41,15.01-14.41c3.48,3.06,6.95,6.13,11.29,10.97
					c-0.11,3.51-0.08,6.75,0.97,10.83c1.75,1.99,3.1,3.82,4.64,5.64c1.62,1.91,2.38,4.42,1.98,6.84
					C162.36,468.75,161.43,470.87,158.75,471.95z"/>
				<path style="fill:#6B4F4B;" d="M86.58,335.29l-9.64,12.21c0,0-2.9,14.75,6.68,19.53c9.58,4.79,59.66,12.04,59.66,12.04
					l-7.14,57.96l20.69,7.71c0,0,15.55-75.76,12.81-81.9c-2.73-6.14-54.65-15.81-54.65-15.81L86.58,335.29z"/>
				<g>
					<path style="fill:none;stroke:#472E2D;stroke-linecap:round;stroke-miterlimit:10;" d="M125.39,349.33
						c13.95,2.35,27.66,6.07,40.87,11.14c2.28,0.87,3.77,3.08,3.67,5.52c-0.16,3.9-1.5,15.19-2.12,19.05"/>
					<path style="fill:none;stroke:#472E2D;stroke-linecap:round;stroke-miterlimit:10;" d="M139.21,412.15
						c1.33-10.1,3.03-22.94,4.13-32.96c-1.19-0.21-2.39-0.42-3.58-0.63"/>
				</g>
			</g>
		</g>
		<g>
			<path style="fill:#FFE9A6;" d="M111.92,273.5c0,0-15.32,3.53-20.95,11.27c-5.63,7.74-15.96,69.83-15.96,69.83
				c8.6,5.9,36.27,5.11,48.41-3.34l2.92-4.04l6.43,0.96c0,0-2.4-8.55-2.18-11.14c0.68-7.75,6.4-39.89,4.53-47.61
				C133.43,282.45,111.92,273.5,111.92,273.5z"/>
			<path style="fill:none;stroke:#DBAA69;stroke-linecap:round;stroke-miterlimit:10;" d="M124.9,291.73
				c1,13.03,0.62,26.16-1.13,39.11c-0.81,5.97-1.73,12.69,1.96,17.47"/>
			<path style="fill:none;stroke:#DBAA69;stroke-linecap:round;stroke-miterlimit:10;" d="M135.21,293.7
				c-0.25,9.42-0.38,17.11-2.55,28.02"/>
		</g>
		<g>
			<path style="fill:#FDA492;" d="M132.24,352.11c0,0-46.11,0.84-49.3-5.54c-3.19-6.38,1.19-35.32,1.19-35.32l18.32,2.24
				l-2.61,20.19l32.92,7.75L132.24,352.11z"/>
			<g>
				<path style="fill:#FDA492;" d="M131.17,341.55c5.71-0.71,11.75-2.18,18.4-1.9c0.69,0.03,1.38,0.21,1.99,0.58
					c3.65,2.17,6.82,5.37,9.15,9.24c0.45,0.75,0.89,1.58,0.88,2.49c0,0.91-0.63,1.87-1.43,1.81c-0.71-0.05-1.19-0.82-1.61-1.47
					c-1.57-2.44-3.81-4.32-6.32-5.3c1.72,2.08,3.08,4.52,4,7.18c0.32,0.92,0.58,1.95,0.26,2.86c-0.32,0.91-1.48,1.46-2.08,0.75
					c0.09,0.84-0.33,1.72-1,2.1c-0.67,0.37-1.54,0.21-2.07-0.38c-0.07,1.36-1.08,1.99-2.16,1.4c-2.35-1.29-2.58-5.18-5.53-6.21
					c-4.42,0.95-9.13,0.08-13.05-2.43C131.25,348.46,131.12,345.62,131.17,341.55z"/>
				<g>
					<path style="fill:none;stroke:#CC565E;stroke-linecap:round;stroke-miterlimit:10;" d="M154.32,357.14
						c-0.85-2.91-2.15-5.68-3.85-8.19"/>
					<path style="fill:none;stroke:#CC565E;stroke-linecap:round;stroke-miterlimit:10;" d="M151.04,358.92
						c-0.74-3.09-2.18-6.01-4.19-8.47"/>
				</g>
			</g>
			<g>
				<path style="fill:#FFE9A6;" d="M100.23,278.09c-1.15,0.5-2.27,1.04-3.37,1.64c-5.95,3.23-11.25,8.87-12.79,15.46
					c-1.75,7.49-2.68,14.38-3.06,21.94c7.8,1.98,16.57,3.71,24.8,3.79c1.06-6.22,1.66-12.52,1.79-18.83"/>
				<path style="fill:none;stroke:#DBAA69;stroke-linecap:round;stroke-miterlimit:10;" d="M105.41,292.11
					c1.74,9.51,2.05,19.27,1.01,28.73c-1.36-0.01-2.72-0.02-4.08-0.03"/>
			</g>
		</g>
		<g>
			<g>
				<path style="fill:#D4C8A5;" d="M131.24,286.13c0.65,1.61,1,3.35,1.02,5.09c-2.16-1.73-4.56-3.15-7.12-4.22
					c1.43-1.8,2.7-3.74,3.78-5.77c0.89,0.94,1.62,2.02,2.17,3.18"/>
				<path style="fill:#FFFAE0;" d="M123.98,290.38c1.65-1.53,4.1-5.34,5.7-6.93c1.24,1.79,1.61,4.33,2.61,7.61
					c0.01-3.44-0.81-6.88-2.26-9.86c-2.42-2.52-5.36-4.54-8.58-5.88C121.24,280.35,121.98,285.58,123.98,290.38z"/>
			</g>
			<g>
				<path style="fill:#FDA492;" d="M122.85,279.4c0.4,3.93,0.31,4.89,1.15,10.87c-7.57-3.64-14.48-7.98-20.72-13.13
					c1.53-3.05,2.78-6.32,3.6-9.69c0.35-1.47,0.62-2.96,0.79-4.47c6.23,1.74,11.95,3.52,17.68,5.29c-0.57,2.83-1.51,6.59-2.18,9.68
					C123.05,278.45,122.95,278.94,122.85,279.4z"/>
				<path style="fill:#F07A75;" d="M125.35,268.27c-0.57,2.83-1.51,6.59-2.18,9.68c-3.2-0.62-6.28-1.83-9.03-3.58
					c-2.84-1.81-5.32-4.18-7.26-6.92c0.35-1.47,0.62-2.96,0.79-4.47C113.9,264.72,119.62,266.5,125.35,268.27z"/>
			</g>
			<g>
				<path style="fill:#D4C8A5;" d="M121.82,288.3c0.74,0.71,1.49,1.41,2.32,2.19c-2.57-0.64-5.19-1.09-7.83-1.36
					c1.43-0.66,2.77-1.51,3.99-2.5C120.51,287.02,120.83,287.36,121.82,288.3z"/>
				<path style="fill:#FFFAE0;" d="M95.59,278.59c2.06-2.87,5.15-4.97,8.38-6.4c4.62,5.27,10.53,9.95,16.9,12.96
					c0.76,1.92,1.79,3.63,3.15,5.2c-1.39-0.65-2.58-1.38-3.76-2.25c-2.02,1.2-4.85,3.32-6.84,6.1
					C106.39,290.79,100.23,284.84,95.59,278.59z"/>
			</g>
		</g>
		<g>
			<path style="fill:#F07A75;" d="M132.96,245.62c-0.3-2.38,2.67-5.42,4.84-6.27c2.16-0.85,4.84-0.4,6.46,1.27
				c2.09,2.16,1.94,5.87,0.16,8.29s-4.85,3.64-7.85,3.83"/>
			<path style="fill:#FDA492;" d="M101.08,261.18c8.43,12.81,30.82,16.25,36.82,0.49c1.81-4.74,2.08-9.24,0.02-14.44
				c0.47-27.65-22.07-31.49-39.72-17.75c-2.56,1.99-4.06,5.07-3.93,8.32C94.66,247.04,101.08,261.18,101.08,261.18z"/>
			<g>
				<path style="fill:#7B3349;" d="M96.02,257.34c1.39,0.58,2.55,0.24,3.85,1.02c1.76-7.19,3.43-13.9,1.6-21.26
					c2.87,2.4,6.94,1.41,10.19,0.02c3.25-1.4,6.85-3.08,10.24-1.67c-0.37-1.65-1.36-3.17-2.71-4.14c4.69,0.65,9.29,2.26,13.49,4.71
					c0.64-2.03,0.41-4.4-0.64-6.32c3.37,1.55,6.03,4.9,7.5,7.93c2.1-3.54,0.52-9.03-3.16-11c1.62-0.74,3.76-0.09,4.87,1.48
					c-0.45-1.56-1.1-3.06-1.94-4.45c-3.12-5.18-8.66-8.85-14.37-9.15c1-1.15,1.34-2.9,0.88-4.45c-2.55,2.59-6.23,3.59-9.81,4.04
					c-3.58,0.44-7.21,0.62-10.74,1.38c-9.1,1.98-13.61,6.12-12.74,13.77c-1.65,0.65-3.01,1.97-3.84,3.3
					c-0.53,0.8-0.84,1.61-0.9,2.26c-0.15,1.68,0.29,3.4,0.77,5.05C90.51,246.4,92.81,251.23,96.02,257.34z"/>
				<path style="fill:#A34B54;" d="M88.69,232.53c1.66-1.55,3.8-2.58,6.05-2.84c-1.16-3.73,1.52-7.76,5-9.54
					c3.47-1.77,7.52-1.89,11.42-2.13c3.89-0.24,7.99-0.71,11.13-3.03c-0.5,1.08-1.01,2.16-1.51,3.24
					c6.56-1.27,13.64,0.89,18.53,5.41c-3.12-5.18-8.66-8.85-14.37-9.15c1-1.15,1.34-2.9,0.88-4.45c-2.55,2.59-6.23,3.59-9.81,4.04
					c-3.58,0.44-7.21,0.62-10.74,1.38c-9.1,1.98-13.61,6.12-12.74,13.77C90.88,229.89,89.53,231.21,88.69,232.53z"/>
			</g>
			<path style="fill:#FDA492;" d="M101.72,252.48c-1.08-2.15-5.23-3.02-7.51-2.53c-2.27,0.49-4.25,2.35-4.67,4.64
				c-0.53,2.96,1.64,5.96,4.47,6.98c2.83,1.02,6.05,0.33,8.65-1.17"/>
			<g>
				<path style="fill:#7B3349;" d="M128.83,241.04c0.21-1.99,1.85-3.76,3.82-4.12c1.98-0.37,4.13,0.69,5.04,2.48
					C134.98,238.88,132.08,239.34,128.83,241.04z"/>
				<path style="fill:#7B3349;" d="M119.82,243.74c-1.55-1.28-3.89-1.54-5.71-0.64c-1.82,0.9-3.03,2.91-2.95,4.91
					C113.25,245.83,116.14,244.43,119.82,243.74z"/>
				<circle style="fill:#27304A;" cx="120.09" cy="252.36" r="1.33"/>
				<circle style="fill:#27304A;" cx="132.81" cy="248.77" r="1.33"/>
				<path style="fill:#FFFFFF;" d="M129.81,258.95c-2.8,0.84-8,0.94-11.03-0.21C119.17,266.44,129.56,266.46,129.81,258.95z"/>
				<path style="fill:#F07A75;" d="M130.18,253.15c-0.33,1.41-1.07,2.68-2.1,3.59c0.81,0.14,1.65-0.2,2.14-0.87
					C130.7,255.21,130.82,254.25,130.18,253.15z"/>
			</g>
		</g>
	</g>
</g>
</svg>
