<?xml version="1.0" encoding="utf-8"?>
<!-- Generator: Adobe Illustrator 27.5.0, SVG Export Plug-In . SVG Version: 6.00 Build 0)  -->
<svg version="1.1" id="Layer_1" xmlns="http://www.w3.org/2000/svg" xmlns:xlink="http://www.w3.org/1999/xlink" x="0px" y="0px"
	 viewBox="0 0 3327.778 2000" style="enable-background:new 0 0 3327.778 2000;" xml:space="preserve">
<rect x="0" style="opacity:0.26;fill:#29ABE2;" width="3327.778" height="2000"/>
<path style="fill:#333333;" d="M1077.336,1572.222H689.331c-61.354,0-111.553-50.199-111.553-111.553v-204.672
	c0-61.354,50.199-111.553,111.553-111.553h388.006c61.354,0,111.553,50.199,111.553,111.553v204.672
	C1188.889,1522.024,1138.69,1572.222,1077.336,1572.222z"/>
<path style="fill:#FFFFFF;" d="M495.718,1038.31h-43.287v-43.287c0-5.411-4.427-9.838-9.838-9.838s-9.838,4.427-9.838,9.838v43.287
	h-43.287c-5.411,0-9.838,4.427-9.838,9.838c0,5.411,4.427,9.838,9.838,9.838h43.287v43.287c0,5.411,4.427,9.838,9.838,9.838
	s9.838-4.427,9.838-9.838v-43.287h43.287c5.411,0,9.838-4.427,9.838-9.838C505.556,1042.737,501.129,1038.31,495.718,1038.31z"/>
<path style="fill:#FFFFFF;" d="M1495.718,373.495h-43.287v-43.287c0-5.411-4.427-9.838-9.838-9.838s-9.838,4.427-9.838,9.838v43.287
	h-43.287c-5.411,0-9.838,4.427-9.838,9.838c0,5.411,4.427,9.838,9.838,9.838h43.287v43.287c0,5.411,4.427,9.838,9.838,9.838
	s9.838-4.427,9.838-9.838v-43.287h43.287c5.411,0,9.838-4.427,9.838-9.838C1505.556,377.922,1501.129,373.495,1495.718,373.495z"/>
<path style="fill:#FFFFFF;" d="M1468.547,797.251h-32.465v-32.465c0-4.058-3.32-7.378-7.378-7.378c-4.058,0-7.379,3.32-7.379,7.378
	v32.465h-32.465c-4.058,0-7.378,3.32-7.378,7.378c0,4.058,3.32,7.379,7.378,7.379h32.465v32.465c0,4.058,3.32,7.379,7.379,7.379
	c4.058,0,7.378-3.32,7.378-7.379v-32.465h32.465c4.058,0,7.378-3.32,7.378-7.379
	C1475.926,800.571,1472.606,797.251,1468.547,797.251z"/>
<path style="fill:#FFFFFF;" d="M629.659,391.696h-32.465V359.23c0-4.058-3.32-7.378-7.378-7.378c-4.058,0-7.378,3.32-7.378,7.378
	v32.465h-32.465c-4.058,0-7.378,3.32-7.378,7.379c0,4.058,3.32,7.378,7.378,7.378h32.465v32.465c0,4.058,3.32,7.379,7.378,7.379
	c4.058,0,7.378-3.32,7.378-7.379v-32.465h32.465c4.058,0,7.378-3.32,7.378-7.378C637.037,395.016,633.717,391.696,629.659,391.696z"
	/>
<path style="fill:#FFFFFF;" d="M2787.066,478.733h-32.465v-32.465c0-4.058-3.32-7.379-7.379-7.379c-4.058,0-7.378,3.32-7.378,7.379
	v32.465h-32.465c-4.058,0-7.378,3.32-7.378,7.379c0,4.058,3.32,7.378,7.378,7.378h32.465v32.465c0,4.058,3.32,7.378,7.378,7.378
	c4.058,0,7.379-3.32,7.379-7.378V493.49h32.465c4.058,0,7.379-3.32,7.379-7.378C2794.445,482.053,2791.124,478.733,2787.066,478.733
	z"/>
<path style="fill:#FFFFFF;" d="M3061.198,905.584h-32.465v-32.465c0-4.058-3.32-7.378-7.378-7.378s-7.378,3.32-7.378,7.378v32.465
	h-32.465c-4.058,0-7.378,3.32-7.378,7.379c0,4.058,3.32,7.378,7.378,7.378h32.465v32.465c0,4.058,3.32,7.378,7.378,7.378
	s7.378-3.32,7.378-7.378v-32.465h32.465c4.058,0,7.378-3.32,7.378-7.378C3068.576,908.905,3065.256,905.584,3061.198,905.584z"/>
<g>
	<defs>
		<rect id="SVGID_1_" x="0" width="3327.778" height="2000"/>
	</defs>
	<clipPath id="SVGID_00000038379256543398216360000010076263378995127466_">
		<use xlink:href="#SVGID_1_"  style="overflow:visible;"/>
	</clipPath>
	<g style="clip-path:url(#SVGID_00000038379256543398216360000010076263378995127466_);">
		<path style="opacity:0.47;fill:#29ABE2;" d="M2849.477,2754.766c-0.007-1.491-0.015-2.997-0.024-4.521
			c-0.001-0.185-0.002-0.368-0.003-0.553c-0.013-2.22-0.029-4.483-0.046-6.77c-0.004-0.435-0.006-0.866-0.01-1.303
			c-0.017-2.238-0.036-4.512-0.056-6.813c-0.005-0.537-0.01-1.076-0.014-1.617c-0.021-2.27-0.043-4.565-0.067-6.894
			c-0.006-0.571-0.012-1.148-0.018-1.722c-0.025-2.399-0.052-4.818-0.08-7.277c-0.003-0.262-0.006-0.53-0.01-0.793
			c-0.028-2.397-0.058-4.826-0.089-7.278c-0.006-0.498-0.012-0.992-0.019-1.493c-0.032-2.51-0.066-5.055-0.101-7.622
			c-0.009-0.625-0.017-1.251-0.026-1.879c-0.035-2.537-0.072-5.098-0.11-7.688c-0.01-0.629-0.019-1.264-0.028-1.896
			c-0.04-2.672-0.081-5.364-0.125-8.091c-0.006-0.396-0.013-0.798-0.02-1.195c-0.039-2.455-0.08-4.935-0.121-7.433
			c-0.012-0.717-0.024-1.428-0.036-2.148c-0.043-2.573-0.089-5.176-0.134-7.793c-0.016-0.92-0.033-1.841-0.049-2.767
			c-0.045-2.577-0.093-5.175-0.141-7.793c-0.016-0.894-0.033-1.792-0.05-2.691c-0.049-2.625-0.099-5.265-0.15-7.929
			c-0.018-0.938-0.036-1.885-0.055-2.828c-0.045-2.323-0.091-4.661-0.138-7.013c-0.017-0.85-0.033-1.696-0.051-2.55
			c-0.055-2.744-0.112-5.514-0.169-8.297c-0.02-0.968-0.04-1.935-0.06-2.907c-0.058-2.79-0.117-5.599-0.178-8.426
			c-0.022-1.029-0.044-2.061-0.066-3.094c-0.062-2.835-0.123-5.682-0.187-8.552c-0.023-1.046-0.046-2.102-0.07-3.153
			c-0.051-2.29-0.102-4.59-0.155-6.902c-0.03-1.334-0.061-2.668-0.091-4.009c-0.057-2.49-0.115-4.994-0.173-7.508
			c-0.028-1.21-0.056-2.418-0.085-3.634c-0.066-2.807-0.133-5.628-0.2-8.463c-0.032-1.33-0.064-2.663-0.096-3.999
			c-0.067-2.805-0.135-5.619-0.205-8.45c-0.032-1.327-0.065-2.662-0.098-3.995c-0.055-2.21-0.11-4.429-0.166-6.655
			c-0.042-1.707-0.085-3.417-0.129-5.133c-0.058-2.317-0.117-4.643-0.177-6.976c-0.037-1.428-0.073-2.854-0.11-4.288
			c-0.072-2.799-0.145-5.612-0.218-8.433c-0.039-1.493-0.078-2.989-0.118-4.488c-0.075-2.84-0.15-5.687-0.226-8.547
			c-0.04-1.495-0.08-2.996-0.12-4.497c-0.056-2.098-0.113-4.202-0.17-6.311c-0.062-2.308-0.125-4.622-0.189-6.942
			c-0.056-2.073-0.113-4.15-0.171-6.232c-0.042-1.507-0.083-3.011-0.125-4.523c-0.075-2.727-0.152-5.463-0.229-8.206
			c-0.054-1.934-0.109-3.872-0.164-5.813c-0.076-2.678-0.152-5.363-0.229-8.055c-0.051-1.769-0.102-3.543-0.153-5.318
			c-0.06-2.073-0.119-4.15-0.18-6.231c-0.067-2.319-0.135-4.641-0.203-6.969c-0.062-2.119-0.124-4.242-0.187-6.369
			c-0.063-2.135-0.126-4.274-0.189-6.416c-0.068-2.276-0.135-4.555-0.204-6.84c-0.06-1.993-0.119-3.987-0.179-5.985
			c-0.082-2.724-0.165-5.453-0.247-8.187c-0.059-1.93-0.118-3.865-0.177-5.8c-0.051-1.671-0.103-3.344-0.154-5.018
			c-0.096-3.124-0.193-6.253-0.29-9.389c-0.048-1.539-0.095-3.079-0.144-4.62c-0.105-3.379-0.211-6.764-0.318-10.155
			c-0.04-1.284-0.081-2.568-0.122-3.853c-0.07-2.209-0.14-4.419-0.21-6.633c-0.049-1.544-0.099-3.092-0.148-4.638
			c-0.107-3.344-0.214-6.693-0.323-10.048c-0.047-1.448-0.094-2.9-0.141-4.35c-0.108-3.315-0.216-6.633-0.325-9.957
			c-0.047-1.453-0.095-2.906-0.143-4.361c-0.106-3.227-0.212-6.457-0.32-9.691c-0.055-1.652-0.109-3.304-0.165-4.958
			c-0.136-4.103-0.274-8.21-0.413-12.322c-0.022-0.676-0.046-1.351-0.068-2.027c-0.076-2.259-0.153-4.519-0.23-6.781
			c-0.055-1.632-0.111-3.266-0.167-4.9c-0.122-3.561-0.243-7.123-0.366-10.689c-0.027-0.786-0.054-1.572-0.081-2.358
			c-0.146-4.208-0.291-8.418-0.438-12.632c-0.03-0.865-0.06-1.729-0.091-2.593c-0.135-3.888-0.272-7.778-0.41-11.669
			c-0.042-1.193-0.084-2.386-0.126-3.58c-0.084-2.366-0.168-4.732-0.252-7.099c-0.033-0.914-0.066-1.827-0.098-2.741
			c-0.139-3.897-0.279-7.793-0.42-11.691c-0.053-1.476-0.106-2.952-0.16-4.427c-0.132-3.653-0.265-7.304-0.398-10.956
			c-0.041-1.106-0.081-2.211-0.121-3.316c-0.137-3.729-0.274-7.457-0.412-11.184c-0.05-1.338-0.099-2.676-0.149-4.013
			c-0.082-2.219-0.165-4.437-0.248-6.654c-0.065-1.752-0.131-3.503-0.196-5.254c-0.119-3.177-0.239-6.352-0.358-9.525
			c-0.051-1.343-0.102-2.686-0.153-4.028c-0.145-3.805-0.289-7.606-0.435-11.405c-0.035-0.933-0.071-1.865-0.107-2.797
			c-0.161-4.194-0.323-8.383-0.485-12.567c-0.025-0.64-0.049-1.281-0.074-1.92v0c-6.052-155.831-13.006-304.171-19.655-405.414
			c9.23-4.058,11.721-7.789,11.721-7.789l-26.255-140.655l12.388-79.467c6.524,1.225,10.676,1.751,10.676,1.751
			s225.43-225.869,215.769-294.732c-8.094-57.694-134.441-292.314-175.211-366.899c1.014-3.841,1.567-5.924,1.567-5.924
			l-5.219-2.547c-2.321-5.493-5.269-10.338-8.929-14.414l-141.629-60.193c0,0-0.207,0.282-0.605,0.825l-4.43-2.162
			c0.364-0.254,0.57-0.4,0.57-0.4s-1.671-0.704-4.513-2.014l-49.461-75.818l-22.359,21.309c-1.536-2.848-2.76-5.744-3.531-8.685
			c-7.412-28.284,8.432-135.979,15.195-178.68c0.879,0.669,1.774,1.265,2.673,1.726c6.409,3.285,35.712-28.629,51.974-44.57
			c11.712-11.48,18.575-39.712,10.735-60.736c0.222-0.404,0.444-0.803,0.664-1.218c0.133-0.251,0.264-0.515,0.396-0.77
			c0.257-0.496,0.514-0.991,0.768-1.502c0.151-0.302,0.299-0.615,0.449-0.922c0.233-0.479,0.467-0.959,0.698-1.451
			c0.157-0.335,0.313-0.678,0.469-1.018c0.222-0.482,0.443-0.965,0.663-1.459c0.157-0.352,0.313-0.71,0.468-1.068
			c0.219-0.502,0.437-1.006,0.654-1.519c0.151-0.358,0.302-0.721,0.453-1.084c0.219-0.527,0.436-1.058,0.653-1.596
			c0.146-0.363,0.292-0.728,0.437-1.096c0.22-0.556,0.439-1.118,0.656-1.684c0.139-0.362,0.278-0.724,0.416-1.09
			c0.224-0.592,0.446-1.191,0.667-1.793c0.129-0.351,0.258-0.701,0.386-1.055c0.233-0.645,0.465-1.298,0.696-1.955
			c0.113-0.321,0.227-0.64,0.339-0.964c0.252-0.725,0.501-1.458,0.75-2.196c0.09-0.266,0.18-0.528,0.269-0.796
			c0.292-0.877,0.583-1.763,0.871-2.656c0.042-0.132,0.086-0.262,0.129-0.395c1.365-4.249,2.682-8.674,3.952-13.226
			c0.018-0.063,0.035-0.127,0.052-0.19c0.296-1.062,0.589-2.13,0.879-3.205c0.034-0.126,0.068-0.253,0.102-0.38
			c0.278-1.03,0.552-2.065,0.825-3.106c0.032-0.122,0.063-0.245,0.095-0.367c0.271-1.04,0.54-2.084,0.807-3.133
			c0.035-0.137,0.07-0.274,0.104-0.411c0.267-1.056,0.532-2.115,0.794-3.179c0.027-0.11,0.054-0.219,0.081-0.329
			c0.272-1.109,0.543-2.221,0.81-3.338c0.015-0.061,0.03-0.123,0.044-0.184c9.524-39.822,15.665-83.945,18.136-103.489
			c0.005-0.045,0.011-0.087,0.016-0.132c0.064-0.509,0.126-1.003,0.186-1.477c0.018-0.144,0.035-0.28,0.052-0.42
			c0.045-0.364,0.089-0.72,0.132-1.062c0.027-0.217,0.052-0.423,0.077-0.632c0.027-0.215,0.052-0.428,0.078-0.633
			c0.039-0.322,0.076-0.628,0.112-0.925c0.007-0.057,0.013-0.112,0.02-0.168c0.38-3.15,0.574-4.91,0.574-4.91
			s9.065-41.955-47.533-77.768c-48.146-30.465-192.477,6.911-271.635-29.07c-83.966-38.167-108.812-10.986-131.675,20.992
			c-22.863,31.978,35.396,84.924,35.396,84.924l6.743,102.282l1.649,25.015l0.77-6.19c-0.17,21.717-0.142,44.633-0.077,61.5
			l-12.941-0.185l-0.227,15.88c0,0,8.116,3.585,13.339,10.591l-25.667,31.403l13.456,10.998l14.511-17.755
			c0.48,4.961,1.025,10.446,1.628,16.269l-7.631,9.336l9.46,7.732c3.289,29.561,7.645,62.698,12.16,79.927
			c9.308,35.519,86.048,91.035,105.273,100.888c3.385,1.734,7.075,2.965,10.855,3.828c-0.094,6.75-0.214,13.215-0.364,19.292
			l-29.976,25.156c-3.227,7.069-6.612,17.056-9.884,28.103l-5.203,2.926c-0.288-0.864-0.723-1.649-1.391-2.316
			c-0.203-0.203-10.459,6.165-20.452,12.447l-0.768-0.219l-0.244,0.855c-7.308,4.598-14.277,9.024-16.853,10.661l0.047-0.93
			c0,0-0.183,0.43-0.525,1.234c-0.363,0.231-0.577,0.367-0.577,0.367s-38.028,38.055-60.981,148.022
			c-40.99,101.062-87.489,221.091-89.278,249.711c-3.22,51.527-12.882,77.29-9.661,122.376
			c3.041,42.575,77.862,220.089,86.188,239.733c-0.206,0.475-0.409,0.96-0.623,1.416c-38.766,82.379-26.135,148.17-14.296,181.505
			c7.769,149.503,102.233,789.578,135.211,1010.034c0.005,0.031,0.01,0.062,0.014,0.093c1.176,7.86,2.273,15.183,3.285,21.933
			c-98.663,18.027-184.554,49.298-249.139,89.492c-0.072-2.552-0.145-5.108-0.218-7.672c-0.054-1.882-0.108-3.769-0.162-5.657
			c-0.048-1.676-0.097-3.356-0.145-5.038c-0.087-2.988-0.174-5.984-0.262-8.988c-0.05-1.703-0.1-3.408-0.15-5.116
			c-0.077-2.62-0.155-5.245-0.233-7.876c-0.055-1.883-0.112-3.767-0.168-5.656c-0.062-2.094-0.125-4.189-0.188-6.29
			c-0.043-1.431-0.087-2.867-0.13-4.301c-0.102-3.375-0.205-6.755-0.308-10.145c-0.039-1.285-0.079-2.572-0.118-3.859
			c-0.106-3.459-0.213-6.925-0.321-10.399c-0.043-1.382-0.086-2.765-0.129-4.15c-0.107-3.438-0.215-6.884-0.324-10.336
			c-0.041-1.286-0.081-2.572-0.122-3.86c-0.227-7.159-0.456-14.343-0.688-21.551c-0.033-1.009-0.066-2.02-0.098-3.03
			c-0.132-4.06-0.264-8.125-0.397-12.198c-0.03-0.913-0.06-1.825-0.09-2.739c-0.126-3.833-0.253-7.672-0.38-11.515
			c-0.037-1.127-0.074-2.254-0.112-3.383c-0.137-4.12-0.275-8.244-0.415-12.374c-0.031-0.915-0.062-1.829-0.092-2.744
			c-0.08-2.374-0.161-4.748-0.241-7.125c-0.024-0.712-0.048-1.425-0.073-2.137c-0.148-4.364-0.298-8.731-0.448-13.103
			c-0.029-0.855-0.059-1.711-0.088-2.566c-0.147-4.254-0.294-8.511-0.443-12.771c-0.023-0.657-0.046-1.315-0.069-1.973
			c-0.441-12.628-0.89-25.274-1.346-37.921c-0.036-0.992-0.072-1.983-0.108-2.975c-0.151-4.16-0.302-8.318-0.454-12.477
			c-0.027-0.736-0.054-1.472-0.081-2.208c-0.182-4.962-0.364-9.922-0.548-14.88c-0.002-0.049-0.004-0.099-0.006-0.148
			c-0.288-7.765-0.579-15.521-0.872-23.268c-0.015-0.405-0.03-0.809-0.046-1.213c-0.17-4.499-0.341-8.992-0.513-13.481
			c-0.033-0.849-0.065-1.697-0.098-2.545c-0.181-4.723-0.364-9.439-0.546-14.149c-0.006-0.146-0.011-0.293-0.017-0.439l0,0
			c-9.888-254.598-22.174-489.352-31.636-532.911c-9.957-45.836-31.858-85.229-52.78-114.562
			c13.279-13.759,22.627-31.064,26.747-50.032c0.003-0.014,0.007-0.028,0.01-0.042c0.204-0.943,0.38-1.895,0.558-2.846
			c0.077-0.409,0.168-0.814,0.24-1.225c0.099-0.566,0.175-1.139,0.265-1.708c0.126-0.799,0.263-1.596,0.37-2.4
			c0.028-0.205,0.044-0.413,0.071-0.618c0.501-3.912,0.793-7.877,0.844-11.886c0.004-0.373-0.009-0.749-0.008-1.123
			c0.002-1.029,0.005-2.058-0.023-3.092c0-0.004,0-0.007,0-0.01c0-0.002,0-0.004,0-0.007c-0.93-33.576-1.885-74.065-2.309-111.13
			c-0.003-0.276-0.005-0.548-0.009-0.824c-0.127-11.294-0.204-22.266-0.216-32.614c0-0.022,0-0.044,0-0.066
			c-0.025-23.289,0.282-43.435,1.101-57.087c0.048-0.806,0.113-1.664,0.186-2.548c0.02-0.234,0.041-0.476,0.062-0.715
			c0.064-0.724,0.135-1.471,0.214-2.244c0.021-0.211,0.041-0.416,0.064-0.631c0.106-0.996,0.221-2.025,0.351-3.096
			c0.01-0.089,0.023-0.184,0.034-0.273c0.122-0.993,0.253-2.02,0.395-3.073c0.032-0.24,0.065-0.483,0.098-0.726
			c0.149-1.093,0.305-2.21,0.474-3.364c0.009-0.058,0.016-0.115,0.025-0.173c0.191-1.302,0.394-2.642,0.61-4.019
			c0.011-0.072,0.023-0.145,0.034-0.217c0.202-1.287,0.415-2.609,0.638-3.959c0.024-0.148,0.048-0.295,0.073-0.443
			c0.236-1.428,0.482-2.885,0.741-4.38c0,0-0.001,0.001-0.001,0.001c10.474-60.609,38.698-175.263,59.537-257.046
			c13.978-54.858-12.484-111.98-63.358-136.812l-73.808-36.025c0.365-0.255,0.573-0.402,0.573-0.402s-1.679-0.708-4.534-2.023
			l-49.687-76.166l-22.462,21.406c-1.543-2.861-2.773-5.77-3.547-8.724c-7.446-28.414,8.471-136.602,15.264-179.498
			c0.883,0.673,1.782,1.271,2.685,1.734c6.438,3.299,35.875-28.76,52.212-44.774c11.364-11.14,18.173-37.974,11.527-58.823
			c0.222-0.422,0.442-0.862,0.663-1.296c0.094-0.184,0.188-0.364,0.281-0.55c0.612-1.219,1.216-2.485,1.814-3.789
			c0.09-0.196,0.18-0.394,0.269-0.592c0.616-1.36,1.225-2.756,1.827-4.199c0.024-0.057,0.047-0.117,0.071-0.174
			c20.722-49.911,32.554-147.103,34.196-161.259c0.001-0.009,0.002-0.017,0.003-0.026c0.043-0.369,0.08-0.691,0.109-0.943
			c0-0.003,0-0.004,0.001-0.007c0.058-0.507,0.088-0.779,0.088-0.779l32.705-35.263c0,0-42.055-0.419-80.456-42.862
			c-38.401-42.442-148.295-53.244-235.64-54.115c-87.345-0.871-117.041,57.069-140.009,89.193
			c-22.968,32.124,6.051,42.12,6.051,42.12l0.015,0.98c0.017,0.008,0.034,0.017,0.051,0.025l8.365,126.875l0.746-5.995
			c-0.135,19.874-0.114,40.396-0.057,56.141l-11.409,0.276l0.386,15.95c0,0,5.97,2.365,11.148,7.257
			c0.019,2.587,0.031,4.028,0.031,4.028s0.062,0.732,0.177,2.068l-22.107,29.279l13.933,10.52l10.562-13.989
			c0.51,5.217,1.085,10.944,1.718,16.99l-3.436,4.552l4.263,3.219c3.372,31.175,8.051,68.103,12.913,86.66
			c9.35,35.682,86.442,91.451,105.755,101.35c3.4,1.742,7.107,2.978,10.905,3.846c-0.095,6.781-0.215,13.276-0.366,19.38
			l-30.113,25.271c-3.241,7.101-6.642,17.134-9.929,28.231l-41.833,23.531c0,0-51.831,84.544-72.403,200.811
			c-15.128,85.501,1.414,328.786,11.228,451.552c1.32,16.511,6.346,32.08,14.298,45.809l-16.082,1.894
			c0,0-28.374,109.109-30.921,228.784c-1.976,92.873,88.025,709.966,128.438,981.718c0.008,0.055,0.016,0.11,0.025,0.165
			c0.314,2.108,0.624,4.193,0.931,6.26c0.01,0.063,0.019,0.125,0.028,0.188c0.291,1.953,0.579,3.888,0.864,5.804
			c0.043,0.293,0.087,0.585,0.131,0.877c1.818,12.204,3.52,23.615,5.094,34.143c0.009,0.065,0.019,0.13,0.029,0.194
			c0.685,4.579,1.346,9.005,1.981,13.241c-203.586,35.623-354.7,127.059-379.984,237.627
			c-46.267-47.878-123.465-86.874-218.609-110.535c-2.842-4.631-5.385-8.882-7.574-12.603c8.717-2.943,16.129-9.269,19.257-17.512
			c0.938-2.471,1.491-5.115,1.578-7.892c0.219-6.988,0.474-14.001,0.764-21.036c0.005-0.12,0.011-0.24,0.015-0.36
			c0.286-6.93,0.605-13.881,0.955-20.852c0.009-0.178,0.019-0.357,0.028-0.535c0.35-6.921,0.731-13.86,1.143-20.817
			c0.012-0.208,0.026-0.417,0.039-0.625c0.413-6.95,0.856-13.917,1.329-20.898c0.011-0.168,0.024-0.337,0.035-0.505
			c0.478-7.034,0.985-14.082,1.521-21.143c0.008-0.102,0.016-0.204,0.024-0.307c6.027-79.243,15.648-160.036,27.276-239.126
			c-0.002,0-0.005,0-0.008-0.001c48.747-331.525,132.848-633.001,135.991-664.193c2.372-1.531,3.635-2.89,3.635-2.89
			s-20.564-301.605-123.384-490.108c0,0-4.201-110.516,6.535-146.304c10.736-35.788,82.918-65.024,79.339-118.706
			c-3.578-53.682-92.729-139.415-103.011-197.679c-13.806-78.234-44.778-54.177-84.116-72.855l-13.511-8.315
			c-2.19-3.376-3.808-6.672-4.623-9.798c-1.691-6.489-2.693-25.377-3.245-50.063c9.176,4.694,15.079,7.576,15.079,7.576
			s29.969,1.575,47.615-11.286c8.504-6.198,28.673-25.093,47.709-47.131c13.242,9.798,18.009,20.982,18.01,20.984v0v0v0
			c0,0,92.501-79.778,80.478-248.16c-12.023-168.382-67.778-247.519-102.211-280.982c-38.497-37.413-102.859-51.569-134.866-51.221
			c-148.284,1.613-160.784,83.284-160.784,83.284s-28.544,0.6-53.507,22.471c-0.019,0.017-0.038,0.033-0.057,0.05
			c-0.744,0.653-1.485,1.326-2.222,2.018c-0.066,0.061-0.131,0.122-0.196,0.184c-0.754,0.711-1.504,1.44-2.248,2.193
			c-0.005,0.005-0.01,0.01-0.015,0.016c-1.51,1.528-2.996,3.144-4.455,4.851c-0.128,0.149-0.254,0.304-0.381,0.455
			c-0.567,0.672-1.129,1.358-1.687,2.058c-0.185,0.232-0.368,0.466-0.552,0.701c-0.513,0.658-1.021,1.329-1.525,2.012
			c-0.179,0.242-0.359,0.482-0.537,0.728c-0.579,0.8-1.151,1.617-1.717,2.452c-0.084,0.124-0.17,0.243-0.254,0.367
			c-0.648,0.966-1.286,1.956-1.915,2.969c-0.145,0.233-0.285,0.475-0.428,0.711c-0.469,0.77-0.933,1.549-1.389,2.346
			c-0.207,0.362-0.411,0.73-0.615,1.097c-0.392,0.704-0.779,1.417-1.161,2.142c-0.21,0.398-0.42,0.798-0.627,1.203
			c-0.386,0.757-0.765,1.528-1.14,2.307c-0.179,0.372-0.361,0.738-0.538,1.115c-0.535,1.145-1.061,2.31-1.571,3.504
			c-0.057,0.133-0.109,0.272-0.166,0.406c-0.453,1.074-0.896,2.168-1.327,3.282c-0.168,0.432-0.328,0.876-0.492,1.315
			c-0.315,0.842-0.625,1.692-0.927,2.557c-0.173,0.497-0.344,0.999-0.512,1.503c-0.288,0.859-0.568,1.731-0.843,2.612
			c-0.155,0.498-0.311,0.993-0.462,1.497c-0.307,1.026-0.6,2.073-0.888,3.128c-0.101,0.368-0.207,0.726-0.305,1.098
			c-0.375,1.424-0.734,2.875-1.075,4.353c-0.089,0.387-0.17,0.788-0.257,1.179c-0.248,1.118-0.49,2.246-0.718,3.395
			c-0.109,0.55-0.212,1.109-0.317,1.666c-0.193,1.034-0.38,2.08-0.557,3.139c-0.098,0.587-0.195,1.176-0.288,1.771
			c-0.175,1.12-0.337,2.258-0.493,3.406c-0.072,0.531-0.149,1.055-0.216,1.591c-0.213,1.685-0.41,3.393-0.581,5.138
			c0,0.001,0,0.003,0,0.004c-0.009,0.091-0.015,0.189-0.024,0.28c-0.188,1.965-0.342,4.044-0.464,6.235
			c-0.2,3.629-0.311,7.553-0.332,11.754c-0.202,40.207,7.679,105.219,21.141,168.139c-6.066,20.24,2.507,45.943,14.492,58.64
			c3.048,10.696,6.25,21.049,9.6,30.879c1.257,3.689,2.535,7.305,3.831,10.841c4.538,12.374,9.313,23.758,14.292,33.784
			c0.711,1.432,1.427,2.837,2.146,4.213c3.598,6.879,7.297,13.04,11.085,18.348c16.27,22.798,38.166,46.097,60.3,66.499
			c6.324,5.829,12.667,11.421,18.904,16.698c1.329,1.124,2.649,2.226,3.967,3.32c-5.012,7.239-12.018,14.066-19.766,20.243
			l-1.492-2.27l-6.136,4.219c-15.818,3.828-30.942,8.718-45.207,14.574c-0.572-1.454-0.886-2.238-0.886-2.238
			c0.248,0.768,0.49,1.533,0.736,2.3c-45.571,18.738-82.53,47.069-106.749,80.051c-0.079-0.03-0.155-0.065-0.235-0.095
			c0,0-0.202,0.43-0.578,1.237c-13.703,18.952-23.242,39.4-27.757,60.444c-44.792,98.78-127.609,287.112-134.403,343.73
			c-6.344,52.863,56.727,252.415,97.961,375.33c-32.54,87.16-34.419,143.982-34.419,143.982
			c-7.975,36.716,33.888,277.286,58.115,452.397c0,0,0,0,0,0c0.588,4.25,1.165,8.461,1.732,12.631
			c0.025,0.185,0.05,0.369,0.075,0.554c0.252,1.858,0.502,3.708,0.75,5.549c0.042,0.307,0.082,0.612,0.123,0.918
			c0.224,1.667,0.446,3.327,0.666,4.979c0.063,0.472,0.125,0.943,0.188,1.414c0.2,1.506,0.397,3.005,0.594,4.497
			c0.067,0.51,0.134,1.02,0.201,1.528c0.196,1.494,0.39,2.981,0.582,4.462c0.06,0.465,0.122,0.932,0.181,1.396
			c0.206,1.59,0.41,3.171,0.611,4.745c0.043,0.336,0.087,0.676,0.13,1.012c0.738,5.776,1.446,11.438,2.122,16.976
			c0.051,0.422,0.102,0.84,0.153,1.261c0.169,1.387,0.335,2.767,0.5,4.138c0.062,0.524,0.124,1.043,0.186,1.565
			c0.152,1.269,0.301,2.532,0.449,3.786c0.065,0.555,0.13,1.107,0.194,1.659c0.14,1.204,0.279,2.399,0.416,3.589
			c0.065,0.568,0.131,1.136,0.195,1.701c0.14,1.23,0.279,2.45,0.415,3.665c0.054,0.481,0.109,0.964,0.162,1.442
			c0.146,1.305,0.288,2.596,0.429,3.883c0.043,0.394,0.088,0.793,0.13,1.186c0.365,3.354,0.713,6.644,1.043,9.865
			c0.031,0.301,0.06,0.595,0.09,0.895c0.131,1.283,0.26,2.558,0.384,3.819c0.047,0.477,0.093,0.947,0.139,1.42
			c0.104,1.068,0.208,2.131,0.308,3.183c0.052,0.549,0.103,1.092,0.155,1.636c0.091,0.969,0.181,1.933,0.269,2.888
			c0.05,0.547,0.099,1.091,0.148,1.633c0.086,0.953,0.17,1.897,0.251,2.835c0.046,0.526,0.092,1.052,0.137,1.573
			c0.081,0.948,0.16,1.885,0.237,2.817c0.04,0.486,0.081,0.974,0.12,1.455c0.082,1.015,0.161,2.015,0.238,3.01
			c0.029,0.375,0.06,0.755,0.088,1.127c0.208,2.737,0.397,5.396,0.563,7.973c0.022,0.339,0.042,0.667,0.062,1.003
			c0.059,0.927,0.116,1.849,0.169,2.754c0.026,0.445,0.049,0.88,0.074,1.32c0.044,0.789,0.087,1.575,0.127,2.347
			c0.023,0.457,0.045,0.907,0.067,1.359c0.036,0.736,0.07,1.465,0.102,2.185c0.02,0.451,0.038,0.898,0.057,1.342
			c0.029,0.709,0.055,1.409,0.08,2.101c0.015,0.427,0.03,0.853,0.043,1.273c0.023,0.693,0.041,1.373,0.059,2.048
			c0.01,0.398,0.022,0.8,0.03,1.191c0.016,0.725,0.028,1.433,0.038,2.136c0.005,0.314,0.012,0.636,0.015,0.945
			c0.012,1.006,0.019,1.992,0.019,2.951c0,154.301-7.486,302.074-12.241,399.233c-0.232,4.746-0.458,9.366-0.676,13.865
			c-0.251,5.179-0.492,10.196-0.721,15.034c-0.204,4.312-0.398,8.486-0.581,12.515c-0.105,2.302-0.206,4.557-0.303,6.763
			c-0.261,5.907-0.495,11.469-0.697,16.666c-0.075,1.915-0.145,3.781-0.211,5.596c-0.118,3.265-0.221,6.367-0.309,9.299
			c-0.029,0.959-0.053,1.871-0.078,2.794c-172.043,36.362-292.769,121.527-292.769,220.791c0,132.328,214.545,239.6,479.201,239.6
			c237.504,0,434.616-86.397,472.568-199.758c86.77,103.113,290.714,175.513,528.488,175.513
			c316.526,0,573.121-128.298,573.121-286.561c0-31.995-10.496-62.763-29.845-91.497c40.118,4.47,81.815,6.846,124.628,6.846
			c315.084,0,570.51-127.713,570.51-285.255C3201.563,2899.496,3056.17,2797.635,2849.477,2754.766z M1210.8,1873.71
			c0.04,0.164,0.078,0.321,0.118,0.485l-2.092-0.247C1209.488,1873.872,1210.145,1873.792,1210.8,1873.71z M1052.618,1226.123
			c8.808,3.18,17.509,5.853,25.909,7.824C1070.234,1233.872,1061.396,1231.216,1052.618,1226.123z M990.906,1003.663
			c-1.732-4.709-3.457-9.472-5.166-14.277c-0.855-2.403-1.706-4.816-2.552-7.239c-1.693-4.845-3.367-9.727-5.013-14.635
			c-2.471-7.361-4.882-14.779-7.207-22.214c-1.55-4.957-3.062-9.921-4.528-14.882c-0.671-2.27-1.329-4.538-1.98-6.805
			c8.741,23.695,24.402,64.889,37.005,91.17c0.736,7.396,1.377,14.635,1.889,21.564c-1.536-3.907-3.08-7.869-4.629-11.899
			C996.119,1017.667,993.504,1010.726,990.906,1003.663z M781.992,1658.861l72.412-122.607
			c36.995,94.981,74.963,180.872,74.963,180.872c-41.713,45.884-75.237,90.753-102.18,133.132L781.992,1658.861z M909.091,3221.326
			l40.761-453.018l1.608-5.678l0,0l148.539-524.695l-42.945,429.455l5.627,146.307l0,0l9.598,249.582l5.077,131.999
			c-0.151,1.677-0.204,3.315-0.166,4.913c0.15,6.393,1.76,12.142,4.473,17.098c0.621,1.134,1.306,2.221,2.037,3.27l-1.374,6.909
			c-38.421-4.964-78.708-7.607-120.231-7.607C944.176,3219.86,926.498,3220.368,909.091,3221.326z M2779.094,1363.695
			c5.072-88.668,14.595-220.761,28.03-262.074c1.058-3.254,2.243-6.808,3.521-10.603l71.775,95.923L2779.094,1363.695z
			 M2350.9,241.221c-0.11,0.202-0.219,0.407-0.328,0.611l0.086-0.691C2350.736,241.168,2350.822,241.193,2350.9,241.221z
			 M2471.154,698.98c-0.567,21.916-1.532,38.487-3.088,44.453c-0.01,0.04-0.026,0.077-0.037,0.117
			C2466.326,729.373,2466.875,714.266,2471.154,698.98z M1811.989,1070.882c-0.491,19.028-1.28,34.054-2.491,41.686
			C1807.667,1099.142,1808.048,1085.033,1811.989,1070.882z M1889.3,3104.056l-12.105-417.675h0l-11.29-389.552l169.671,807.135
			c-23.721-1.496-47.893-2.27-72.426-2.27C1938.125,3101.694,1913.478,3102.501,1889.3,3104.056z M2548.591,2736.072
			l-23.763-908.912l173.755,907.932c-22.15-1.306-44.676-1.998-67.529-1.998C2603.044,2733.094,2575.519,2734.122,2548.591,2736.072
			z"/>
		<path style="fill:#333333;" d="M2044.003,1572.222h-388.006c-61.354,0-111.553-50.199-111.553-111.553v-204.672
			c0-61.354,50.199-111.553,111.553-111.553h388.006c61.354,0,111.553,50.199,111.553,111.553v204.672
			C2155.556,1522.024,2105.357,1572.222,2044.003,1572.222z"/>
		<g>
			<g>
				<path style="fill:#CED0D8;" d="M1620.37,1135.185c0,0-148.148,237.037-164.815,264.815
					c-16.667,27.778-37.037,103.704-33.333,138.889c3.704,35.185,150,205.556,150,205.556L1620.37,1135.185z"/>
				<g>
					<ellipse style="fill:#CED0D8;" cx="1853.891" cy="3377.144" rx="573.122" ry="286.561"/>
					<g>
						<path style="fill:#E08A68;" d="M1873.661,847.458c0,0-27.493,161.493-18.143,197.174c9.35,35.682,80.23,65.507,80.23,65.507
							s-153.143,108.474-211.05,75.543c-57.908-32.931-77.156-49.299-77.156-49.299s45.355-6.018,52.083-31.834
							c6.728-25.816,2.484-249.096,2.484-249.096L1873.661,847.458z"/>
						<path style="fill:#EF9E78;" d="M1568.452,794.266c0,0,8.673,103.617,18.023,139.299c9.35,35.682,86.442,91.451,105.755,101.35
							c19.313,9.899,48.493,3.719,48.493,3.719s91.226-63.797,104.424-89.548c13.198-25.751,33.705-135.548,33.705-135.548
							s24.065-142.115-1.461-177.958c-25.525-35.843-99.189-110.991-186.76-89.216c-87.571,21.774-115.182,32.822-120.728,102.327
							C1567.463,679.285,1568.452,794.266,1568.452,794.266z"/>
						<path style="fill:#330F1D;" d="M1581.315,685.061l63.352,26.904c0,0,6.968-1.314,6.422-10.091
							c-0.545-8.778-41.68-32.656-53.036-31.07C1586.696,672.391,1579.232,679.904,1581.315,685.061z"/>
						<path style="fill:#330F1D;" d="M1804.198,693.689l-72.921,27.397c0,0-7.816-1.819-6.78-11.718s48.69-34.936,61.456-32.6
							C1798.719,679.105,1806.799,687.957,1804.198,693.689z"/>
						<path style="fill:#64342F;" d="M1683.979,3160.395c0,0-95.438,145.583-150.436,158.523c0,0-48.528,42.057-22.646,71.174
							c25.881,29.117,71.174,29.117,100.29,22.646c29.117-6.47,126.172-103.526,126.172-103.526l6.47-16.176l9.706,16.176
							l35.587-25.881l-19.411-132.642L1683.979,3160.395z"/>
						<path style="fill:#64342F;" d="M1960.587,3218.628l3.235,106.761l35.587,54.998l6.47,3.235c0,0,12.941,126.172,16.176,132.642
							c3.235,6.47,3.235,22.646,22.646,38.822c19.411,16.176,67.939,38.822,100.291,6.47c32.352-32.352,35.587-64.703,35.587-64.703
							s-90.585-210.286-93.82-229.698c-3.235-19.411-16.176-64.703-16.176-64.703L1960.587,3218.628z"/>
						
							<ellipse transform="matrix(0.01 -1 1 0.01 794.5242 2399.3311)" style="fill:#2B203E;" cx="1608.957" cy="798.42" rx="22.646" ry="16.176"/>
						
							<ellipse transform="matrix(0.01 -1 1 0.01 937.21 2546.3433)" style="fill:#2B203E;" cx="1754.533" cy="799.872" rx="22.646" ry="16.176"/>
						<g>
							<path style="fill:#F07A6E;" d="M1685.073,877.93c-8.542-1.517-18.75-4.135-21.887-10.953
								c-2.465-5.355-0.09-12.063,7.261-20.506c12.78-14.679,2.437-89.57-2.628-117.189l6.396-0.804
								c0.045,0.252,4.649,25.514,7.186,52.748c3.456,37.087,1.53,60.115-5.72,68.444c-5.876,6.749-8.049,11.921-6.46,15.374
								c1.551,3.37,7.007,5.78,17.174,7.588L1685.073,877.93z"/>
						</g>
						<path style="fill:#C1272D;" d="M1649.767,913.167l119.728-2.041c0,0,12.908,3.364-6.728,25.816
							c-19.636,22.451-87.507,15.304-87.507,15.304S1646.274,939.015,1649.767,913.167z"/>
						<path style="fill:#FFFFFF;" d="M1649.786,911.294l119.709-0.169c0,0,12.927,1.491-6.579,10.833s-87.413,5.94-87.413,5.94
							S1646.443,922.159,1649.786,911.294z"/>
						<path style="fill:#222A4E;" d="M1557.935,1835.242c0,0-28.374,109.109-30.921,228.784
							c-2.307,108.401,120.697,931.004,143.891,1085.019c2.193,14.56,14.085,25.683,28.756,26.932l37.675,3.207
							c24.148,2.056,44.7-17.378,43.998-41.603l-24.689-851.863l197.471,939.38c0,0,98.899,42.676,126.172-12.941
							c12.563-25.62-24.451-1149.822-46.342-1250.601c-21.891-100.779-101.53-170.428-101.53-170.428L1557.935,1835.242z"/>
						<path style="fill:#161E3A;" d="M1665.118,2684.401c-21.295-0.066-42.242-1.41-62.872-3.911
							c29.422,206.892,58.54,401.359,68.66,468.555c2.193,14.56,14.085,25.683,28.756,26.932l37.675,3.207
							c24.148,2.055,44.7-17.378,43.998-41.603l-13.399-462.311C1734.858,2682.692,1700.586,2685.739,1665.118,2684.401z"/>
						<path style="fill:#161E3A;" d="M2028.343,2533.948c-46.528,50.092-101.633,85.496-165.316,106.212
							c-9.543,5.013-19.215,9.553-28.989,13.72l120.078,571.218c0,0,98.9,42.676,126.172-12.941
							c7.133-14.547-1.717-383.242-14.706-717.69C2054.223,2508.243,2041.834,2521.417,2028.343,2533.948z"/>
						<path style="fill:#3D1623;" d="M1893.684,786.186c0,0-35.456-13.295-31.866-48.848c3.59-35.553-8.576-113.322-18.184-123.124
							c-9.608-9.802-200.7,10.94-261.955-10.701l-14.069,113.096l-8.431-127.88c0,0-29.018-9.995-6.051-42.12
							c22.968-32.124,52.664-90.064,140.009-89.193c87.345,0.871,197.239,11.673,235.64,54.115
							c38.401,42.442,80.456,42.862,80.456,42.862l-32.705,35.263c0,0-14.23,129.272-40.578,175.921L1893.684,786.186z"/>
						<path style="fill:#330F1D;" d="M1928.776,511.532c-38.401-42.442-148.294-53.244-235.64-54.115
							c-87.345-0.871-117.041,57.069-140.009,89.193c-22.968,32.124,6.051,42.12,6.051,42.12l0.015,0.98
							c8.263,3.873,15.732,9.075,22.207,15.334l0.278-1.53c61.255,21.64,252.347,0.899,261.955,10.701
							c0.235,0.24,0.473,0.554,0.711,0.874c15.73-14.233,36.559-23.025,57.743-22.814c29.646,0.296,54.286,15.806,68.873,38.613
							c3.675-24.067,5.566-41.23,5.566-41.23l32.705-35.263C2009.232,554.394,1967.177,553.975,1928.776,511.532z"/>
						<path style="fill:#262728;" d="M1575.601,1839.365c0,0,0,49.606,54.998,78.723c54.998,29.117,135.877,45.293,177.935,35.587
							c42.057-9.705,164.994-71.174,171.464-106.761l-1.078,1.078L1575.601,1839.365z"/>
						
							<rect x="1831.18" y="1892.206" transform="matrix(0.9747 -0.2234 0.2234 0.9747 -383.0737 459.8735)" style="fill:#222A4E;" width="19.411" height="61.468"/>
						
							<rect x="1646.775" y="1876.03" transform="matrix(0.9124 0.4092 -0.4092 0.9124 925.3604 -510.9083)" style="fill:#222A4E;" width="19.411" height="61.468"/>
						
							<rect x="1892.648" y="1869.56" transform="matrix(0.9022 -0.4314 0.4314 0.9022 -633.671 1006.6241)" style="fill:#222A4E;" width="19.411" height="61.468"/>
						
							<rect x="1585.307" y="1846.914" transform="matrix(0.733 0.6802 -0.6802 0.733 1702.9858 -583.6459)" style="fill:#222A4E;" width="19.411" height="61.468"/>
						<path style="fill:#330F1D;" d="M1900.413,760.246c-13.992-0.14-26.857-3.688-38.09-9.771
							c4.812,25.737,31.361,35.711,31.361,35.711l42.265-20.608c2.831-5.013,5.522-10.985,8.071-17.643
							C1930.863,755.843,1915.73,760.399,1900.413,760.246z"/>
						<path style="fill:#EF9E78;" d="M1879.401,758.543c0,0,11.661-33.855,40.615-17.389c28.954,16.465,22,64.926,5.663,80.94
							c-16.336,16.014-45.774,48.074-52.212,44.774c-6.438-3.3-12.811-13.069-12.811-13.069L1879.401,758.543z"/>
						<path style="fill:#DADEEA;" d="M1672.656,1106.059l69.786,84.654l154.663-98.753l111.878,54.607
							c50.874,24.832,77.336,81.954,63.358,136.812c-25.14,98.664-61.03,245.173-63.534,286.907
							c-2.385,39.756-0.429,134.58,1.432,201.738c1.257,45.357-27.093,86.247-70.01,100.977
							c-53.832,18.476-126.509,38.69-177.436,34.542c-41.994-3.421-87.4-13.839-124.013-24.026
							c-43.886-12.21-75.432-50.57-79.062-95.978c-9.814-122.766-26.355-366.051-11.227-451.552
							c20.571-116.267,72.403-200.811,72.403-200.811L1672.656,1106.059z"/>
						<path style="fill:#CED0D8;" d="M2008.807,1570.285c0.428-7.14,1.837-17.354,3.998-29.862
							c-45.285,46.859-98.431,80.258-159.483,100.118c-61.217,32.162-127.187,46.909-197.91,44.241
							c-35.566-0.111-70.196-3.65-103.908-10.555c2.749,42.547,5.701,81.874,8.213,113.298
							c3.638,45.507,35.309,83.828,79.294,96.054c36.573,10.167,81.877,20.549,123.783,23.962
							c51.003,4.154,123.821-16.126,177.677-34.625c42.826-14.71,71.023-55.648,69.768-100.911
							C2008.378,1704.849,2006.422,1610.038,2008.807,1570.285z"/>
						<polygon style="fill:#BABBBF;" points="1740.595,1190.173 1685.597,1167.527 1643.54,1190.173 1685.597,1125.47 						"/>
						<polygon style="fill:#DADEEA;" points="1753.684,1198.913 1763.938,1144.014 1881.527,1031.95 1932.513,1110.107 
							1824.596,1225.503 						"/>
						<path style="fill:#DADEEA;" d="M1703.327,1057.673l-30.671,25.739c-13.23,28.986-29.117,106.761-29.117,106.761l38.822-48.528
							l60.088,48.084C1742.45,1189.73,1683.256,1123.798,1703.327,1057.673z"/>
						<polygon style="fill:#BABBBF;" points="1831.18,1196.644 1763.241,1144.881 1743.83,1190.173 1779.417,1177.233 						"/>
						<rect x="1770.091" y="1313.11" style="fill:#CED0D8;" width="139.113" height="19.411"/>
						<path style="fill:#EF9E78;" d="M1598.148,1598.02l-83.333,18.519l-161.111-22.222l-100,48.148c0,0-7.407,9.259-11.111,22.222
							c-3.704,12.963,24.27,18.647,24.27,18.647l318.322-0.129l46.296-38.889L1598.148,1598.02z"/>
						<g>
							<path style="fill:#CED0D8;" d="M1760.262,1966.816l-66.225-7.193c-6.132-0.666-10.604-6.228-9.938-12.36l3.517-32.378
								c0.666-6.132,6.228-10.604,12.36-9.938l66.225,7.193c6.132,0.666,10.604,6.228,9.938,12.36l-3.517,32.378
								C1771.957,1963.01,1766.395,1967.482,1760.262,1966.816z"/>
							<path style="fill:#262728;" d="M1757.266,1961.222l-59.101-6.419c-5.227-0.568-9.04-5.309-8.472-10.536l2.826-26.02
								c0.568-5.227,5.309-9.039,10.536-8.472l59.101,6.419c5.227,0.568,9.04,5.309,8.472,10.536l-2.826,26.019
								C1767.234,1957.977,1762.493,1961.79,1757.266,1961.222z"/>
						</g>
						<g>
							<path style="fill:#3F1D1B;" d="M1676.595,3178.389c-5.662,4.547-12.226,7.868-18.762,10.958
								c-6.144,2.904-12.339,5.693-18.378,8.816c-11.79,6.096-23.325,13.384-32.26,23.333c-2.211,2.462-4.323,5.08-6.121,7.861
								c-1.97,3.046-3.642,6.756-3.274,10.47c0.179,1.804,0.674,3.741,1.968,5.088c1.629,1.695,3.846,1.859,6.022,1.304
								c3.035-0.774,6.033-1.848,8.981-2.9c12.257-4.373,24.225-10.367,33.699-19.446c5.274-5.053,9.25-10.99,12.724-17.374
								c3.399-6.245,6.658-12.733,12.285-17.296c-1.548-0.901-3.095-1.802-4.643-2.703c-4.99,18.518-3.098,38.562,5.071,55.893
								c0.98,2.079,2.029,4.154,3.235,6.114c1.29,2.096,3.23,3.918,5.86,3.791c4.502-0.219,6.443-5.267,6.983-9.043
								c1.483-10.358,1.88-20.834,1.065-31.271c-0.91-11.658-3.218-23.193-6.934-34.281c-0.476-1.422-1.914-2.353-3.417-1.94
								c-1.389,0.382-2.419,1.989-1.94,3.417c6.003,17.91,8.276,36.914,6.643,55.736c-0.199,2.293-0.448,4.584-0.774,6.863
								c-0.237,1.652-0.508,3.175-1.402,4.461c-0.208,0.3-0.149,0.169-0.526,0.556c0.113-0.116-0.033-0.012-0.051-0.022
								c-0.231-0.132,0.128-0.049,0.182-0.005c0.247,0.205-0.227-0.137-0.191-0.063c-0.084-0.172-0.267-0.35-0.393-0.521
								c-1.244-1.692-2.166-3.76-3.085-5.642c-3.66-7.492-6.058-15.726-7.014-24.01c-1.104-9.566-0.459-19.252,2.047-28.553
								c0.32-1.188-0.212-2.514-1.277-3.137c-1.139-0.666-2.397-0.351-3.366,0.434c-9.649,7.824-12.785,20.59-20.559,29.912
								c-7.678,9.207-18.138,15.61-29.089,20.223c-2.9,1.222-5.857,2.316-8.837,3.327c-1.36,0.461-2.726,0.903-4.098,1.329
								c-0.645,0.2-2.894,1.134-3.273,0.922c-0.559-0.313-0.418-2.586-0.295-3.272c0.284-1.594,0.98-3.064,1.79-4.452
								c1.517-2.6,3.424-4.987,5.405-7.245c8.263-9.415,18.874-16.302,29.865-22.119c13.373-7.078,28.156-12.021,40.062-21.583
								c1.171-0.94,0.98-2.949,0-3.928C1679.367,3177.232,1677.769,3177.446,1676.595,3178.389L1676.595,3178.389z"/>
						</g>
						<g>
							<path style="fill:#3F1D1B;" d="M2040.267,3243.823c-1.036,9.099-3.837,17.919-6.913,26.507
								c-3.136,8.755-6.527,17.413-9.436,26.249c-5.778,17.55-10.177,36.055-9.103,54.658c0.253,4.385,0.722,8.846,1.725,13.13
								c0.852,3.638,2.269,7.182,4.693,10.063c2.574,3.06,7.516,5.911,11.279,3.196c1.758-1.269,2.701-3.275,3.704-5.134
								c1.034-1.917,2.042-3.847,3.02-5.794c7.978-15.881,14.214-33.059,15.14-50.951c0.466-8.999-0.699-17.869-3.058-26.548
								c-2.296-8.445-5.458-16.877-5.908-25.693c-0.11-2.164-0.046-4.325,0.193-6.478c-1.726,0.467-3.451,0.935-5.176,1.402
								c12.344,21.766,32.443,38.739,55.816,47.584c2.981,1.128,6.016,2.121,9.091,2.958c3.458,0.942,7.4,1.138,9.68-2.149
								c1.611-2.323,1.325-5.492,0.399-8.02c-1.067-2.913-2.888-5.259-4.757-7.699c-8.133-10.62-17.323-20.385-27.503-29.068
								c-11.54-9.842-24.219-18.325-37.765-25.151c-1.339-0.675-3.01-0.354-3.801,0.997c-0.722,1.235-0.348,3.123,0.997,3.801
								c22.471,11.324,42.493,27.19,58.655,46.48c1.933,2.308,3.813,4.66,5.622,7.067c1.593,2.119,3.09,4.083,3.651,6.599
								c0.201,0.901,0.013-0.415,0.081,0.474c0.019,0.243,0.018,0.484,0.013,0.728c-0.01,0.492,0.173-0.568-0.021,0.224
								c-0.017,0.071-0.326,0.82-0.086,0.325c-0.141,0.29,0.058,0.177-0.311,0.346c-0.567,0.26-1.16,0.2-1.776,0.087
								c-2.826-0.519-5.652-1.556-8.357-2.505c-10.71-3.757-20.854-9.414-29.708-16.516c-10.134-8.129-18.712-18.062-25.124-29.367
								c-0.605-1.067-1.964-1.599-3.137-1.276c-1.266,0.348-1.903,1.448-2.039,2.678c-0.96,8.664,1.197,17.249,3.582,25.512
								c2.34,8.108,4.715,16.13,5.184,24.606c0.928,16.76-3.741,33.365-10.495,48.563c-1.715,3.859-3.569,7.656-5.527,11.397
								c-0.944,1.805-1.802,3.826-3.005,5.475c-0.238,0.326-0.413,0.559-0.79,0.586c-0.638,0.046-1.504-0.598-1.992-0.926
								c-2.413-1.616-3.767-4.634-4.598-7.423c-1.086-3.644-1.559-7.481-1.873-11.259c-1.473-17.716,2.337-35.305,7.646-52.111
								c2.686-8.504,5.82-16.848,8.914-25.21c3.098-8.373,6.071-16.85,7.724-25.646c0.421-2.243,0.748-4.503,1.006-6.771
								c0.17-1.493-1.398-2.778-2.778-2.778C2041.402,3241.046,2040.438,3242.326,2040.267,3243.823L2040.267,3243.823z"/>
						</g>
						<g>
							<g style="opacity:0.69;">
								<defs>
									
										<ellipse id="SVGID_00000151510953187431794670000012776949818962961085_" transform="matrix(0.7071 -0.7071 0.7071 0.7071 -78.0418 1381.2119)" style="opacity:0.69;" cx="1628.249" cy="784.811" rx="53.183" ry="53.183"/>
								</defs>
								<clipPath id="SVGID_00000068660045747366277440000001823732234591693728_">
									<use xlink:href="#SVGID_00000151510953187431794670000012776949818962961085_"  style="overflow:visible;"/>
								</clipPath>
								
									<ellipse transform="matrix(0.7071 -0.7071 0.7071 0.7071 -78.0418 1381.2119)" style="opacity:0.43;clip-path:url(#SVGID_00000068660045747366277440000001823732234591693728_);fill:#FFFFFF;" cx="1628.249" cy="784.811" rx="53.183" ry="53.183"/>
								
									<rect x="1522.136" y="759.187" transform="matrix(0.6026 -0.7981 0.7981 0.6026 23.4443 1582.9095)" style="opacity:0.43;clip-path:url(#SVGID_00000068660045747366277440000001823732234591693728_);fill:#FFFFFF;" width="157.776" height="17.458"/>
								
									<rect x="1542.954" y="778.234" transform="matrix(0.6026 -0.7981 0.7981 0.6026 18.475 1606.1173)" style="opacity:0.43;clip-path:url(#SVGID_00000068660045747366277440000001823732234591693728_);fill:#FFFFFF;" width="157.776" height="12.549"/>
							</g>
							<g style="opacity:0.69;">
								<defs>
									
										<ellipse id="SVGID_00000114782451504792302950000017626207160102511037_" transform="matrix(0.1374 -0.9905 0.9905 0.1374 744.9309 2418.6233)" style="opacity:0.69;" cx="1761.168" cy="781.594" rx="53.183" ry="53.183"/>
								</defs>
								<clipPath id="SVGID_00000036219534694280654520000016876317645300207511_">
									<use xlink:href="#SVGID_00000114782451504792302950000017626207160102511037_"  style="overflow:visible;"/>
								</clipPath>
								
									<ellipse transform="matrix(0.1374 -0.9905 0.9905 0.1374 744.9309 2418.6233)" style="opacity:0.43;clip-path:url(#SVGID_00000036219534694280654520000016876317645300207511_);fill:#FFFFFF;" cx="1761.168" cy="781.594" rx="53.183" ry="53.183"/>
								
									<rect x="1655.054" y="755.97" transform="matrix(0.6026 -0.7981 0.7981 0.6026 78.8364 1687.7085)" style="opacity:0.43;clip-path:url(#SVGID_00000036219534694280654520000016876317645300207511_);fill:#FFFFFF;" width="157.776" height="17.458"/>
								
									<rect x="1675.872" y="775.018" transform="matrix(0.6026 -0.7981 0.7981 0.6026 73.867 1710.916)" style="opacity:0.43;clip-path:url(#SVGID_00000036219534694280654520000016876317645300207511_);fill:#FFFFFF;" width="157.776" height="12.549"/>
							</g>
							
								<ellipse transform="matrix(0.7071 -0.7071 0.7071 0.7071 -78.3401 1381.0967)" style="fill:none;stroke:#42210B;stroke-width:5.5556;stroke-miterlimit:10;" cx="1627.961" cy="785.113" rx="53.774" ry="53.774"/>
							
								<rect x="1682.321" y="771.679" transform="matrix(0.9997 -0.0242 0.0242 0.9997 -18.4693 41.2206)" style="fill:#42210B;" width="24.819" height="24.819"/>
							<path style="fill:#42210B;" d="M1813.863,760.813l24.811-0.6l0.386,15.95c0,0-15.822,5.703-20.881,16.465L1813.863,760.813z"
								/>
							<path style="fill:#42210B;" d="M1576.383,766.56l-19.495,0.472l0.386,15.95c0,0,12.661,5.013,17.096,15.546L1576.383,766.56z
								"/>
							<polygon style="fill:#8C6239;" points="1838.675,760.213 1880.922,747.369 1877.664,759.269 1839.061,776.163 							"/>
							
								<ellipse transform="matrix(0.9956 -0.0933 0.0933 0.9956 -65.0907 167.8134)" style="fill:none;stroke:#42210B;stroke-width:5.5556;stroke-miterlimit:10;" cx="1762.313" cy="780.089" rx="53.774" ry="53.774"/>
						</g>
					</g>
				</g>
				<path style="fill:#E4E7EF;" d="M1961.111,1185.185c0,0,41.048-34.879,80.709,14.968c39.661,49.847,13.735,88.736,13.735,88.736
					s-157.083,305.819-175.764,329.762c-18.681,23.942-311.096,66.663-311.096,66.663s-33.511-63.092-59.437-81.61l275.926-101.852
					L1961.111,1185.185z"/>
			</g>
			<g>
				<ellipse style="fill:#CED0D8;" cx="2521.794" cy="3007.238" rx="570.51" ry="285.255"/>
				<g>
					<path style="fill:#E08A68;" d="M2532.051,476.402c0,0-27.368,160.757-18.06,196.276s79.865,65.208,79.865,65.208
						s-152.445,107.98-210.088,75.199c-57.644-32.781-76.805-49.075-76.805-49.075s45.148-5.991,51.845-31.689
						c6.697-25.698,2.473-247.961,2.473-247.961L2532.051,476.402z"/>
					<path style="fill:#EF9E78;" d="M2228.233,423.453c0,0,8.633,103.145,17.941,138.664
						c9.308,35.519,86.048,91.035,105.273,100.888c19.225,9.853,48.272,3.702,48.272,3.702s90.81-63.506,103.948-89.14
						c13.138-25.634,33.552-134.93,33.552-134.93s23.955-141.467-1.454-177.147s-98.737-110.485-185.909-88.81
						c-87.172,21.675-114.657,32.673-120.178,101.86C2227.248,308.996,2228.233,423.453,2228.233,423.453z"/>
					<path style="fill:#666666;" d="M2248.763,366.858l68.511,0.683c0,0,5.911-3.856,2.074-11.725
						c-3.837-7.869-50.757-14.21-60.603-8.435C2248.9,353.156,2244.887,362.904,2248.763,366.858z"/>
					<path style="fill:#666666;" d="M2486.306,371.965l-77.538-0.773c0,0-6.602-4.497-2.083-13.314
						c4.519-8.817,57.755-14.933,68.765-8.177C2486.461,356.457,2490.781,367.578,2486.306,371.965z"/>
					<path style="fill:#64342F;" d="M2343.234,2778.799c0,0-95.003,144.919-149.75,157.801c0,0-48.307,41.866-22.543,70.849
						c25.763,28.984,70.849,28.984,99.833,22.543c28.984-6.441,125.597-103.054,125.597-103.054l6.441-16.102l9.661,16.102
						l35.425-25.763l-19.323-132.038L2343.234,2778.799z"/>
					<path style="fill:#64342F;" d="M2618.581,2836.767l3.22,106.274l35.425,54.747l6.441,3.22c0,0,12.882,125.597,16.102,132.038
						s3.22,22.543,22.543,38.645c19.323,16.102,67.629,38.645,99.833,6.441c32.204-32.204,35.425-64.408,35.425-64.408
						s-90.172-209.328-93.392-228.651c-3.22-19.323-16.102-64.408-16.102-64.408L2618.581,2836.767z"/>
					
						<ellipse transform="matrix(0.01 -1 1 0.01 1810.8094 2691.6763)" style="fill:#2B203E;" cx="2264.731" cy="431.359" rx="22.543" ry="16.102"/>
					<path style="fill:#2B203E;" d="M2425.745,432.965c-0.124,12.45-7.434,22.47-16.326,22.381s-16.001-10.253-15.876-22.702
						c0.124-12.449,7.434-22.47,16.326-22.381C2418.761,410.351,2425.869,420.515,2425.745,432.965z"/>
					<g>
						<path style="fill:#F07A6E;" d="M2344.322,506.736c-8.503-1.511-18.665-4.116-21.787-10.903
							c-2.454-5.331-0.09-12.008,7.228-20.413c12.721-14.612,2.426-89.162-2.615-116.655l6.367-0.8
							c0.045,0.251,4.628,25.398,7.154,52.508c3.441,36.918,1.523,59.841-5.694,68.132c-5.849,6.719-8.013,11.867-6.43,15.304
							c1.544,3.355,6.975,5.754,17.095,7.553L2344.322,506.736z"/>
					</g>
					<path style="fill:#FFFFFF;" d="M2319.561,548.428l92.784-18.533c0,0,10.457,0.425-1.961,18.414
						c-12.418,17.99-66.066,22.882-66.066,22.882S2320.118,566.401,2319.561,548.428z"/>
					<path style="fill:#8C6239;" d="M2217.764,1459.685c0,0-28.245,108.612-30.78,227.741
						c-2.296,107.907,120.147,926.761,143.236,1080.075c2.183,14.493,14.021,25.566,28.625,26.809l37.504,3.192
						c24.037,2.046,44.496-17.299,43.797-41.413l-24.577-940.04l196.571,1027.158c0,0,98.449,42.481,125.597-12.882
						c12.506-25.503-24.339-1144.582-46.131-1244.901s-101.067-169.651-101.067-169.651L2217.764,1459.685z"/>
					<path style="fill:#7C4F29;" d="M2324.458,2304.975c-21.198-0.066-42.049-1.403-62.585-3.894
						c29.288,205.949,58.274,399.53,68.347,466.42c2.183,14.493,14.021,25.566,28.625,26.809l37.503,3.193
						c24.038,2.046,44.496-17.299,43.798-41.413l-13.338-460.204C2393.88,2303.273,2359.765,2306.306,2324.458,2304.975z"/>
					<path style="fill:#7C4F29;" d="M2686.028,2155.207c-46.316,49.864-101.17,85.107-164.563,105.729
						c-9.499,4.99-4.965,9.509-14.694,13.657l105.368,568.615c0,0,98.449,42.481,125.597-12.882
						c7.1-14.48-1.709-381.495-14.639-714.419C2711.79,2129.619,2699.458,2142.733,2686.028,2155.207z"/>
					<path style="fill:#161E3A;" d="M2277.215,762.809c0,0-148.14,347.807-151.36,399.334c-3.22,51.527-12.882,77.29-9.661,122.376
						c3.221,45.086,86.952,241.532,86.952,241.532l38.645-61.188L2277.215,762.809z"/>
					<path style="fill:#333333;" d="M2551.983,411.869c0,0-35.295-13.234-31.721-48.625c3.573-35.391-8.537-112.806-18.101-122.563
						c-9.565-9.757-199.785,10.89-260.762-10.652l-14.005,112.581l-8.392-127.297c0,0-58.258-52.946-35.395-84.924
						s47.708-59.158,131.675-20.992c79.158,35.981,223.488-1.395,271.634,29.07c56.599,35.813,47.533,77.768,47.533,77.768
						s-14.166,128.682-40.393,175.119L2551.983,411.869z"/>
					<path style="fill:#666666;" d="M2219.587,224.195l7.807,118.415l12.982-104.357
						C2233.321,233.804,2226.39,229.113,2219.587,224.195z"/>
					<path style="fill:#666666;" d="M2552.373,262.753c-12.512,6.573-25.325,12.04-38.437,16.417
						c5.075,27.622,8.435,63.173,6.325,84.073c-3.573,35.391,31.721,48.625,31.721,48.625l42.072-20.514
						c24.306-43.036,38.244-156.634,40.157-173.056C2609.839,238.093,2582.57,252.93,2552.373,262.753z"/>
					<path style="fill:#262728;" d="M2235.349,1463.789c0,0,0,49.38,54.747,78.364c54.748,28.984,135.258,45.086,177.124,35.425
						c41.866-9.661,164.242-70.849,170.683-106.274l-1.073,1.073L2235.349,1463.789z"/>
					
						<rect x="2489.763" y="1516.39" transform="matrix(0.9747 -0.2234 0.2234 0.9747 -282.4348 597.4888)" style="fill:#222A4E;" width="19.323" height="61.188"/>
					
						<rect x="2306.199" y="1500.288" transform="matrix(0.9124 0.4092 -0.4092 0.9124 829.2783 -813.6611)" style="fill:#222A4E;" width="19.323" height="61.188"/>
					
						<rect x="2550.951" y="1493.847" transform="matrix(0.9022 -0.4314 0.4314 0.9022 -407.1176 1253.8226)" style="fill:#222A4E;" width="19.323" height="61.188"/>
					
						<rect x="2245.01" y="1471.304" transform="matrix(0.733 0.6802 -0.6802 0.733 1623.5039 -1132.6552)" style="fill:#222A4E;" width="19.323" height="61.188"/>
					<path style="fill:#EF9E78;" d="M2537.764,387.893c0,0,11.608-33.7,40.43-17.31c28.822,16.39,21.9,64.63,5.638,80.571
						c-16.262,15.941-45.565,47.855-51.974,44.57c-6.408-3.284-12.753-13.01-12.753-13.01L2537.764,387.893z"/>
					<path style="fill:#DADEEA;" d="M2331.962,733.825l69.468,84.268l153.958-98.303l198.709,96.989
						c0,0-83.654,314.784-87.517,379.157c-2.374,39.572-0.427,133.951,1.426,200.802c1.249,45.058-26.82,85.809-69.451,100.451
						c-53.61,18.414-126.096,38.603-176.867,34.467c-41.715-3.398-86.812-13.733-123.219-23.853
						c-43.784-12.171-75.311-50.317-78.932-95.616c-9.769-122.211-26.234-364.374-11.175-449.482
						c20.478-115.737,72.073-199.896,72.073-199.896L2331.962,733.825z"/>
					<polygon style="fill:#BABBBF;" points="2399.591,817.556 2344.844,795.013 2302.978,817.556 2344.844,753.148 					"/>
					<polygon style="fill:#DADEEA;" points="2412.621,826.256 2422.827,771.607 2539.881,660.054 2590.635,737.854 2483.21,852.724 
											"/>
					<path style="fill:#DADEEA;" d="M2362.493,685.66l-30.531,25.622c-13.17,28.854-28.984,106.274-28.984,106.274l38.645-48.307
						l51.788,45.542C2393.411,814.792,2342.513,751.483,2362.493,685.66z"/>
					<polygon style="fill:#BABBBF;" points="2489.763,823.997 2422.134,772.47 2402.812,817.556 2438.236,804.674 					"/>
					<g>
						<path style="fill:#CED0D8;" d="M2419.169,1590.659l-65.923-7.16c-6.104-0.663-10.556-6.2-9.893-12.304l3.5-32.23
							c0.663-6.104,6.2-10.556,12.304-9.893l65.923,7.16c6.104,0.663,10.556,6.2,9.893,12.304l-3.501,32.23
							C2430.81,1586.87,2425.273,1591.322,2419.169,1590.659z"/>
						<path style="fill:#262728;" d="M2416.186,1585.091l-58.832-6.39c-5.203-0.565-8.998-5.285-8.433-10.488l2.813-25.901
							c0.565-5.203,5.285-8.998,10.488-8.433l58.832,6.39c5.204,0.565,8.999,5.285,8.433,10.488l-2.813,25.901
							C2426.109,1581.861,2421.39,1585.656,2416.186,1585.091z"/>
					</g>
					<g>
						<path style="fill:#3F1D1B;" d="M2335.874,2796.702c-5.668,4.551-12.241,7.869-18.784,10.958
							c-6.231,2.942-12.51,5.772-18.625,8.952c-11.677,6.073-23.092,13.347-31.904,23.258c-4.426,4.978-10.073,11.584-9.027,18.737
							c0.226,1.548,0.753,3.18,1.864,4.335c1.625,1.691,3.837,1.855,6.007,1.301c3.167-0.808,6.295-1.933,9.367-3.04
							c12.142-4.375,23.99-10.367,33.343-19.417c5.248-5.078,9.169-11.046,12.637-17.431c3.317-6.107,6.543-12.413,12.041-16.871
							c-1.548-0.901-3.095-1.802-4.643-2.703c-4.947,18.357-3.099,38.21,4.94,55.416c1.005,2.151,2.088,4.292,3.329,6.317
							c1.277,2.084,3.155,3.827,5.744,3.783c4.659-0.079,6.559-5.444,7.097-9.25c1.448-10.232,1.834-20.578,1.028-30.885
							c-0.907-11.61-3.203-23.096-6.904-34.139c-0.477-1.422-1.914-2.353-3.417-1.94c-1.389,0.382-2.419,1.989-1.94,3.417
							c5.969,17.808,8.233,36.702,6.617,55.418c-0.192,2.222-0.429,4.443-0.742,6.652c-0.237,1.674-0.487,3.335-1.423,4.664
							c-0.023,0.032-0.373,0.43-0.389,0.449c0.136-0.163-0.158,0.088-0.177,0.102c0.35-0.254,0.035,0.076-0.088,0.006
							c0.097,0.055,0.269-0.164,0.373-0.009c-0.048-0.071-0.245-0.028-0.29-0.099c-0.125-0.203-0.35-0.442-0.493-0.652
							c-1.162-1.704-2.08-3.643-2.982-5.493c-3.634-7.449-6.015-15.635-6.965-23.869c-1.098-9.519-0.456-19.156,2.038-28.411
							c0.32-1.188-0.212-2.514-1.277-3.137c-1.139-0.666-2.397-0.351-3.366,0.434c-9.615,7.797-12.733,20.522-20.49,29.805
							c-7.622,9.121-17.975,15.469-28.828,20.057c-2.844,1.203-5.745,2.279-8.667,3.275c-1.424,0.485-2.855,0.95-4.292,1.396
							c-0.692,0.215-2.877,1.134-3.26,0.925c-0.43-0.234-0.427-2.268-0.363-2.84c0.177-1.577,0.871-3.091,1.638-4.459
							c1.54-2.747,3.55-5.259,5.624-7.619c8.197-9.327,18.71-16.159,29.603-21.932c13.34-7.07,28.095-11.996,39.975-21.535
							c1.171-0.94,0.979-2.949,0-3.928C2338.646,2795.545,2337.048,2795.759,2335.874,2796.702L2335.874,2796.702z"/>
					</g>
					<g>
						<path style="fill:#3F1D1B;" d="M2697.885,2861.847c-1.031,9.056-3.819,17.836-6.882,26.383
							c-3.134,8.746-6.52,17.395-9.424,26.223c-5.755,17.497-10.127,35.951-9.02,54.495c0.26,4.366,0.728,8.813,1.748,13.073
							c0.853,3.562,2.259,7.024,4.634,9.847c2.521,2.997,7.357,5.835,11.099,3.29c1.844-1.254,2.813-3.327,3.841-5.231
							c1.035-1.919,2.044-3.852,3.023-5.801c7.981-15.894,14.212-33.106,15.068-51.018c0.422-8.847-0.743-17.564-3.062-26.094
							c-2.285-8.405-5.433-16.798-5.881-25.572c-0.11-2.154-0.046-4.305,0.192-6.448c-1.725,0.467-3.451,0.935-5.176,1.402
							c12.344,21.765,32.48,38.724,55.884,47.492c2.866,1.074,5.781,2.021,8.733,2.825c3.445,0.938,7.378,1.134,9.652-2.144
							c1.605-2.315,1.322-5.474,0.399-7.993c-1.063-2.903-2.885-5.25-4.748-7.682c-8.135-10.62-17.332-20.384-27.523-29.055
							c-11.448-9.741-24.015-18.141-37.44-24.906c-1.339-0.675-3.01-0.354-3.801,0.996c-0.722,1.235-0.348,3.123,0.997,3.801
							c22.412,11.294,42.381,27.127,58.481,46.381c1.887,2.257,3.723,4.556,5.491,6.908c1.591,2.116,3.081,4.072,3.639,6.575
							c0.201,0.899,0.013-0.419,0.08,0.468c0.018,0.242,0.018,0.482,0.013,0.724c-0.009,0.49,0.173-0.569-0.021,0.22
							c-0.018,0.073-0.326,0.819-0.084,0.321c-0.13,0.269,0.031,0.187-0.305,0.34c-0.561,0.256-1.149,0.199-1.758,0.086
							c-2.763-0.514-5.522-1.518-8.171-2.442c-10.717-3.739-20.867-9.392-29.721-16.495c-10.084-8.091-18.621-17.975-25.001-29.225
							c-0.605-1.067-1.964-1.599-3.137-1.277c-1.266,0.348-1.903,1.448-2.039,2.678c-0.948,8.548,1.153,17.024,3.503,25.18
							c2.33,8.09,4.726,16.09,5.214,24.545c0.964,16.7-3.674,33.261-10.396,48.408c-1.715,3.865-3.569,7.667-5.529,11.412
							c-0.945,1.805-1.8,3.826-3.004,5.475c-0.234,0.321-0.417,0.549-0.775,0.577c-0.633,0.05-1.495-0.597-1.977-0.92
							c-2.394-1.604-3.744-4.605-4.571-7.381c-1.084-3.64-1.555-7.473-1.867-11.247c-1.46-17.66,2.35-35.191,7.65-51.941
							c2.69-8.501,5.828-16.841,8.919-25.202c3.054-8.263,5.977-16.63,7.607-25.309c0.42-2.234,0.745-4.485,1.001-6.743
							c0.17-1.493-1.398-2.778-2.778-2.778C2699.02,2859.069,2698.055,2860.35,2697.885,2861.847L2697.885,2861.847z"/>
					</g>
					<path style="fill:#747CBB;" d="M2349.289,778.573c0,0,40.128,17.704,71.995-7.081l29.506,23.605l-33.047,57.832l14.163,173.496
						l-67.274,102.681c0,0-31.867-70.815-31.867-77.896c0-7.081,35.407-201.822,35.407-201.822l-24.785-53.111L2349.289,778.573z"/>
					<path style="fill:#161E3A;" d="M2598.32,739.625c0,0-215.985,293.881-223.066,346.992c0,0-58.19-226.126-60.701-322.619
						c-0.242-9.316,5.627-19.308,0.932-24.003c-0.396-0.397-39.371,24.415-39.371,24.415s-81.437,81.437-77.896,350.533
						c2.678,203.525,26.205,362.563,3.541,410.725c-56.652,120.385-3.541,205.362-3.541,205.362s148.711,14.163,177.037-187.659
						c34.679,110.269,116.993,162.389,169.955,169.955c148.711,21.245,169.955-10.622,169.955-10.622l-49.57-265.555
						c0,0,11.43-282.553,32.271-346.639c20.84-64.086,88.517-238.985,42.085-290.693L2598.32,739.625z"/>
					<path style="fill:#EF9E78;" d="M2673.328,1418.226l-67.629,35.808c0,0-28.984,13.773-16.102,60.599
						c12.882,46.827,93.393,85.39,93.393,85.39l19.323-123.953l16.102-24.791L2673.328,1418.226z"/>
					<path style="fill:#161E3A;" d="M2739.949,799.817c0,0,178.131,320.922,187.792,389.785
						c9.661,68.863-215.769,294.732-215.769,294.732s-86.952-11.018-90.172-49.581l151.36-258.923l-103.054-137.725
						C2670.107,1038.104,2620.793,838.38,2739.949,799.817z"/>
				</g>
				<path style="fill:#333333;" d="M2292.047,526.771c0,0,1.18-12.993,28.916-15.158c27.736-2.165,70.225-15.158,80.847-10.827
					c10.622,4.331,28.326,8.662,28.326,21.654c0,0-102.681,25.985-138.089,25.985
					C2292.047,548.425,2284.965,544.094,2292.047,526.771z"/>
				<g>
					<path style="fill:#283460;" d="M2371.772,1544.021c-38.445-206.21-28.549-321.093-14.07-353.672
						c39.301-88.425,218.886-192.873,245.365-207.906l-94.46-37.428l111.042-45.509l10.543-144.078l3.531,0.259l-10.702,146.263
						l-104.943,43.009l93.236,36.943l-3.286,1.814c-2.049,1.129-205.33,114.111-247.089,208.072
						c-14.358,32.302-24.021,145.965,14.315,351.584L2371.772,1544.021z"/>
				</g>
				<g>
					<path style="fill:#283460;" d="M2357.587,1191.422c-18.221-89.279-45.995-149.74-66.086-184.737
						c-21.763-37.912-39.446-54.937-39.623-55.104l-2.273-2.165l76.675-20.912l-71.254-38.768l39.239-137.513l3.406,0.972
						l-38.46,134.785l76.499,41.624l-79.228,21.607c5.393,5.686,20.187,22.56,37.985,53.529
						c20.256,35.245,48.251,96.12,66.588,185.973L2357.587,1191.422z"/>
				</g>
				<g>
					<g style="opacity:0.69;">
						<defs>
							
								<ellipse id="SVGID_00000130642148010064391870000008158494516602385293_" transform="matrix(0.7071 -0.7071 0.7071 0.7071 373.7131 1738.53)" style="opacity:0.69;" cx="2285.448" cy="418.153" rx="52.94" ry="52.94"/>
						</defs>
						<clipPath id="SVGID_00000070097531172315301920000015635074465316785313_">
							<use xlink:href="#SVGID_00000130642148010064391870000008158494516602385293_"  style="overflow:visible;"/>
						</clipPath>
						
							<ellipse transform="matrix(0.7071 -0.7071 0.7071 0.7071 373.7131 1738.53)" style="opacity:0.43;clip-path:url(#SVGID_00000070097531172315301920000015635074465316785313_);fill:#FFFFFF;" cx="2285.448" cy="418.153" rx="52.94" ry="52.94"/>
						
							<rect x="2180.485" y="391.616" transform="matrix(0.6328 -0.7743 0.7743 0.6328 519.4883 1896.1123)" style="opacity:0.43;clip-path:url(#SVGID_00000070097531172315301920000015635074465316785313_);fill:#FFFFFF;" width="157.057" height="17.379"/>
						
							<rect x="2200.557" y="411.362" transform="matrix(0.6328 -0.7743 0.7743 0.6328 513.462 1918.0083)" style="opacity:0.43;clip-path:url(#SVGID_00000070097531172315301920000015635074465316785313_);fill:#FFFFFF;" width="157.057" height="12.492"/>
					</g>
					<g style="opacity:0.69;">
						<defs>
							
								<ellipse id="SVGID_00000050633598755717405820000011123575290383615157_" transform="matrix(0.7071 -0.7071 0.7071 0.7071 411.1367 1832.6608)" style="opacity:0.69;" cx="2417.786" cy="420.044" rx="52.94" ry="52.94"/>
						</defs>
						<clipPath id="SVGID_00000013155679648104346530000005108101721726421391_">
							<use xlink:href="#SVGID_00000050633598755717405820000011123575290383615157_"  style="overflow:visible;"/>
						</clipPath>
						
							<ellipse transform="matrix(0.7071 -0.7071 0.7071 0.7071 411.1367 1832.6608)" style="opacity:0.43;clip-path:url(#SVGID_00000013155679648104346530000005108101721726421391_);fill:#FFFFFF;" cx="2417.786" cy="420.044" rx="52.94" ry="52.94"/>
						
							<rect x="2312.823" y="393.507" transform="matrix(0.6328 -0.7743 0.7743 0.6328 566.6145 1999.2745)" style="opacity:0.43;clip-path:url(#SVGID_00000013155679648104346530000005108101721726421391_);fill:#FFFFFF;" width="157.057" height="17.379"/>
						
							<rect x="2332.895" y="413.253" transform="matrix(0.6328 -0.7743 0.7743 0.6328 560.5883 2021.1705)" style="opacity:0.43;clip-path:url(#SVGID_00000013155679648104346530000005108101721726421391_);fill:#FFFFFF;" width="157.057" height="12.492"/>
					</g>
					
						<ellipse transform="matrix(0.7071 -0.7071 0.7071 0.7071 373.4207 1738.4039)" style="fill:none;stroke:#42210B;stroke-width:5.5556;stroke-miterlimit:10;" cx="2285.15" cy="418.443" rx="53.529" ry="53.529"/>
					
						<rect x="2339.251" y="407.628" transform="matrix(0.9999 0.0143 -0.0143 0.9999 6.2409 -33.5576)" style="fill:#42210B;" width="24.706" height="24.706"/>
					<path style="fill:#42210B;" d="M2470.998,401.391l24.703,0.353l-0.227,15.88c0,0-15.956,5.067-21.401,15.578L2470.998,401.391z
						"/>
					<path style="fill:#42210B;" d="M2234.555,398.013l-19.41-0.277l-0.227,15.881c0,0,12.402,5.472,16.41,16.118L2234.555,398.013z
						"/>
					<polygon style="fill:#8C6239;" points="2495.701,401.744 2538.217,390.586 2534.52,402.299 2495.474,417.625 					"/>
					
						<ellipse transform="matrix(0.9699 -0.2433 0.2433 0.9699 -29.153 601.1487)" style="fill:none;stroke:#42210B;stroke-width:5.5556;stroke-miterlimit:10;" cx="2418.983" cy="418.591" rx="53.529" ry="53.529"/>
				</g>
				<path style="fill:#333333;" d="M2288.564,227.714c0,0-62.975,22.9-7.634,64.883c0,0-37.531-34.986,26.081-60.43
					L2288.564,227.714z"/>
			</g>
			<g>
				<path style="fill:#210812;" d="M1134.348,1058.729c0,0-15.926-37.547-70.846-35.318c-2.297,0.093-4.661,0.256-7.096,0.494
					c-60.655,5.928,97.627-323.318,97.627-323.318S1216.244,980.621,1134.348,1058.729z"/>
				<ellipse style="fill:#CED0D8;" cx="852.835" cy="3448.349" rx="479.201" ry="239.6"/>
				<path style="fill:#E08A68;" d="M875.203,879.978c0,0,27.662,162.484,18.254,198.385s-80.723,65.909-80.723,65.909
					s154.083,109.14,212.346,76.007c58.263-33.133,52.077-18.082,52.077-18.082s-61.208-37.575-67.977-63.549
					c-6.769-25.974-2.499-250.626-2.499-250.626L875.203,879.978z"/>
				<path style="fill:#EF9E78;" d="M1153.989,826.324c0,0,7.597,104.342,3.888,141.269c-3.709,36.927-71.602,104.422-89.248,117.283
					c-17.646,12.861-47.615,11.286-47.615,11.286s-100.653-49.13-117.801-72.658S848.5,894.058,848.5,894.058
					s-30.857-133.052-26.4-177.1c8.976-88.695,81.212-125.836,171.657-117.901c90.444,7.936,119.615,14.596,136.005,82.808
					C1136.978,711.89,1153.989,826.324,1153.989,826.324z"/>
				<path style="fill:#330F1D;" d="M1119.809,717.003l-66.228,20.224c0,0-6.191,0.163-3.433-4.135
					c2.757-4.297,47.4-20.522,57.632-21.055C1118.011,711.505,1123.08,714.277,1119.809,717.003z"/>
				<path style="fill:#330F1D;" d="M883.92,748.784l78.01-7.526c0,0,6.47-2.503,1.58-5.789c-4.89-3.286-58.707-0.912-69.527,2.95
					C883.163,742.281,879.246,747.356,883.92,748.784z"/>
				<path style="fill:#434580;" d="M1046.479,3217.458c0,0,63.906,97.483,110.481,126.11c14.344,8.816,24.489,23.249,26.54,39.96
					c1.445,11.77,0.041,24.536-8.681,34.348c-21.739,24.457-42.742,16.975-67.199,11.541
					c-24.457-5.435-105.979-86.957-105.979-86.957l-5.435-13.587l-23.445-42.24c-6.5-11.712-8.634-25.35-6.021-38.488l7.726-38.838
					L1046.479,3217.458z"/>
				<path style="fill:#EF9E78;" d="M1049.467,3205.508c0,0,53.143,97.909,97.399,127.241c13.45,8.915,22.015,23.647,23.252,39.736
					c1.044,13.584-0.703,28.691-10.236,39.416c-21.739,24.457-29.877,8.963-49.273,5.565
					c-24.677-4.323-105.979-86.957-105.979-86.957l-5.435-13.587l-23.445-42.24c-6.5-11.712-8.634-25.35-6.02-38.488l7.726-38.838
					L1049.467,3205.508z"/>
				<path style="fill:#434580;" d="M755.172,3282.219l9.992,75.068l-17.814,45.868l-5.396,2.698c0,0-10.793,105.228-13.491,110.624
					c-2.698,5.396-2.698,18.887-18.887,32.378s-50.728,14.579-77.71-12.403c-26.982-26.982-29.68-53.963-29.68-53.963
					s69.615-157.581,72.313-173.77c2.698-16.189,13.491-53.963,13.491-53.963L755.172,3282.219z"/>
				<path style="fill:#EF9E78;" d="M773.796,3259.348l-15.657,49.569c-1.082,35.724,2.695,55.332-16.721,85.338v0l-5.396,2.698
					c0,0-10.793,105.228-13.491,110.624c-2.698,5.396-2.698,18.887-18.887,32.378c-16.189,13.491-49.05,0.632-76.031-26.35
					c-26.982-26.981-11.866-62.296-11.866-62.296s56.632-126.203,59.33-142.392c2.698-16.189,6.982-63.06,6.982-63.06
					L773.796,3259.348z"/>
				<g>
					<path style="fill:#F07A6E;" d="M1053.401,941.87c8.253-2.845,17.988-7.044,20.039-14.311
						c1.612-5.708-1.799-12.004-10.426-19.245c-14.999-12.589-16.44-88.642-15.729-116.885l-6.483,0.202
						c-0.005,0.257-0.628,26.086,1.113,53.551c2.369,37.402,7.888,59.987,16.397,67.131c6.896,5.789,9.866,10.589,8.826,14.269
						c-1.014,3.593-6.06,6.842-15.881,10.229L1053.401,941.87z"/>
				</g>
				<path style="fill:#3B3F72;" d="M1192.868,1873.829c0,0,56.838,189.62,55.544,310.049
					c-0.315,29.373-155.35,570.36-169.209,1011.823c-0.465,14.807-14.172,25.841-28.932,27.097l-37.907,3.227
					c-24.296,2.068-46.676-15.034-44.268-41.858l-20.302-527.888l42.945-429.455l-150.146,530.374l-46.34,515.024
					c0,0-99.507,42.938-126.947-13.02c-6.268-12.781,14.914-253.866,14.914-513.408c0-114.566-85.516-560.896-74.412-612.018
					c22.026-101.398,208.277-304.33,208.277-304.33L1192.868,1873.829z"/>
				<path style="fill:#2D3259;" d="M953.421,2802.586c50.448,24.88,103.418,40.52,158.912,46.911
					c-16.929,115.137-29.603,233.887-33.129,346.204c-0.465,14.807-14.172,25.841-28.933,27.097l-37.907,3.227
					c-24.296,2.068-46.676-15.034-44.268-41.859L953.421,2802.586z"/>
				<path style="fill:#2D3259;" d="M665.923,2586.172c19.519,27.356,42.032,52.963,67.65,76.757
					c32.82,35.334,69.032,64.858,108.628,88.589l-1.608,5.679l-46.34,515.024c0,0-99.507,42.938-126.947-13.02
					c-6.268-12.781,14.914-253.866,14.914-513.408C682.22,2713.509,675.429,2654.878,665.923,2586.172z"/>
				<path style="fill:#EF9E78;" d="M732.407,1937.653l68.356,42.316c0,0,29.295,16.275,16.275,71.611
					c-13.02,55.336-94.396,100.906-94.396,100.906l-19.53-146.477l-16.275-29.295L732.407,1937.653z"/>
				<path style="fill:#DADEEA;" d="M1056.593,1174.779l-44.555-27.419c3.427,82.256-47.855,93.099-87.425,52.857l-59.131-89.976
					l-114.521,78.733c0,0,96.089,451.975,99.993,517.04c2.4,39.997-86.06,133.661-42.971,148.461
					c54.186,18.612,127.452,17.545,178.768,13.364c42.163-3.434,102.06,0.435,138.858-9.794
					c44.254-12.302-3.896-141.749-7.324-227.432c-4.748-118.703,20.564-188.503,20.564-188.503L1056.593,1174.779z"/>
				<path style="fill:#C0C3CC;" d="M833.817,1702.588c-1.722-28.706-41.549-142.193-52.916-245.999
					c74.052,36.673,153.533,53.455,238.469,50.251c34.761-0.108,68.802-2.854,102.156-8.114
					c1.086,46.102,9.551,89.685,3.614,118.178c-17.137,82.256,44.723,228.839,0.469,241.141
					c-36.798,10.229-96.695,6.36-138.858,9.794c-51.316,4.18-124.582,5.247-178.768-13.364
					C764.894,1839.676,836.217,1742.584,833.817,1702.588z"/>
				<g>
					
						<ellipse transform="matrix(0.9862 -0.1654 0.1654 0.9862 -128.3474 167.1147)" style="fill:#330F1D;" cx="939.273" cy="854.224" rx="16.275" ry="22.785"/>
					<path style="fill:#330F1D;" d="M923.026,851.543c0,0-8.941,4.631-23.504-5.969c0,0,11.244,30.464,42.203,22.366
						L923.026,851.543z"/>
				</g>
				<g>
					
						<ellipse transform="matrix(0.9893 -0.1457 0.1457 0.9893 -109.2932 165.7583)" style="fill:#330F1D;" cx="1077.041" cy="829.061" rx="16.275" ry="22.785"/>
					<path style="fill:#330F1D;" d="M1091.678,821.517c0,0,9.932,1.659,20.532-12.904c0,0-1.338,32.445-33.288,34.253
						L1091.678,821.517z"/>
				</g>
				<path style="fill:#603813;" d="M1126.298,731.522c0,0,77.698,171.325,8.049,327.208c0,0,92.501-79.778,80.478-248.16
					c-12.023-168.382-67.778-247.519-102.211-280.982c-38.497-37.413-102.859-51.569-134.867-51.221
					c-148.284,1.612-160.784,83.284-160.784,83.284s-79.445,1.641-89.161,100.989c-6.609,67.58,27.278,275.169,75.766,343.112
					c37.189,52.11,103.773,106.837,135.394,123.595c0,0-118.413-245.825-103.296-356.892c0,0,2.617-29.395,18.067-46.319
					c39.277-43.027,14.365-92.834,14.365-92.834C999.958,757.454,1111.425,706.088,1126.298,731.522z"/>
				<path style="fill:#3F220A;" d="M727.803,662.64c5.93-60.628,37.812-84.84,61.775-94.526
					c23.373,40.024,52.088,75.686,86.152,106.98c-0.91,15.71-6.356,33.909-21.996,51.042
					c-15.449,16.924-18.066,46.319-18.066,46.319c-15.117,111.067,103.296,356.892,103.296,356.892
					c-31.622-16.758-98.206-71.485-135.394-123.595C755.081,937.808,721.194,730.22,727.803,662.64z"/>
				<path style="fill:#3F220A;" d="M1152.649,816.988c20.874,7.001,41.918,12.461,63.127,16.441
					c2.598,152.707-81.428,225.3-81.428,225.3C1172.977,972.272,1166.276,881.081,1152.649,816.988z"/>
				<path style="fill:#EF9E78;" d="M803.439,841.516c0,0-16.889-31.823-43.089-10.927s-11.704,67.973,7.039,81.332
					c18.743,13.359,53.018,40.616,58.9,36.329c5.882-4.287,10.688-14.994,10.688-14.994L803.439,841.516z"/>
				
					<ellipse transform="matrix(0.9287 -0.3708 0.3708 0.9287 -292.5759 369.985)" style="fill:#FFFFFF;" cx="815.873" cy="945.848" rx="21.473" ry="21.473"/>
				<path style="fill:#434580;" d="M861.903,1113.82c0,0,208.4,273.453,225.464,665.655c0,0-21.473,75.155-42.945,121.679
					c-21.473,46.524-85.891,257.673-150.309,314.933c-64.418,57.261-286.303-82.312-286.303-82.312s6.659-201.556,212.299-427.76
					c0,0-147.881-334.522-144.302-413.255C679.385,1214.026,754.539,1138.872,861.903,1113.82z"/>
				<path style="fill:#434580;" d="M1012.038,1147.36c0,0,125.431,256.342,107.538,367.284
					c-17.894,110.943-35.788,232.621-32.209,279.146c3.579,46.524,89.47,357.879,118.1,382.93
					c28.63,25.052,46.484,5.693,46.484,5.693s-20.564-301.605-123.384-490.108c0,0-4.201-110.516,6.535-146.304
					c10.736-35.788,82.918-65.024,79.339-118.706c-3.579-53.682-92.729-139.414-103.011-197.679
					C1095.882,1141.508,1058.562,1183.148,1012.038,1147.36z"/>
				<polygon style="fill:#434580;" points="965.682,3264.01 965.682,3316.295 989.584,3334.221 997.053,3320.776 				"/>
				<path style="fill:#434580;" d="M1164.363,3346.172c0,0,49.887,104.354-58.26,77.68l-43.321-37.346
					c0,0,4.482-49.297,59.754-74.692L1164.363,3346.172z"/>
				<path style="fill:#434580;" d="M725.507,3503.223c0,0-12.988,64.884-45.92,50.122c-99.393-44.555-65.324-97.586-65.324-97.586
					l16.877-42.294c0,0,37.081-20.766,57.847-5.933c20.766,14.833,41.531,38.564,41.531,38.564L725.507,3503.223z"/>
				<path style="fill:#3B3F72;" d="M813.253,1126.797c0,0,54.837,137.093,61.692,209.067l92.538,47.982l-58.265,65.119
					c0,0,150.802,188.503,167.939,284.468c0,0-95.965-219.349-198.785-281.041l58.265-65.119l-78.828-41.128
					C857.808,1346.146,850.954,1243.326,813.253,1126.797z"/>
				<path style="fill:#3B3F72;" d="M1039.457,1162.783l71.974,118.243l-11.996,53.124l49.696,32.56
					c0,0-47.983,287.896-53.124,308.459l70.26-311.887l-51.41-30.846l8.568-54.837L1039.457,1162.783z"/>
				
					<rect x="679.587" y="1959.637" transform="matrix(-0.9023 -0.4312 0.4312 -0.9023 615.4505 4082.76)" style="fill:#3B3F72;" width="181.648" height="23.991"/>
				<path style="fill:#EF9E78;" d="M746.917,2021.509l39.884,64.428c0,0,36.816,42.952,30.68,73.632
					c-6.136,30.68-21.476,21.476-21.476,21.476v76.7c0,0-21.476,24.544-30.68,9.204c-9.204-15.34-82.836-21.476-98.175-52.156
					c-15.34-30.68,18.408-116.583,18.408-116.583l-6.136-36.816L746.917,2021.509z"/>
				<path style="fill:#3B3F72;" d="M707.006,1209.052c0,0-153.386,327.479-162.738,405.411
					c-9.352,77.932,132.159,474.677,132.159,474.677s84.167-12.469,87.284-56.111l-90.978-385.279l120.918-204.737
					C793.651,1443.013,822.345,1252.694,707.006,1209.052z"/>
				<path style="fill:#C1272D;" d="M1090.667,967.202l-133.334-3.461c0,0-14.41,3.619,7.238,28.82
					c21.648,25.202,97.315,17.914,97.315,17.914S1094.302,996.026,1090.667,967.202z"/>
				<path style="fill:#FFFFFF;" d="M1090.665,965.115l-133.332-1.375c0,0-14.413,1.533,7.22,12.131
					c21.633,10.599,97.303,7.483,97.303,7.483S1094.281,977.251,1090.665,965.115z"/>
			</g>
		</g>
	</g>
</g>
<rect x="366.667" y="1803.704" style="fill:#4D4D4D;" width="2411.111" height="196.296"/>
<rect x="227.778" y="1714.815" style="fill:#F2F2F2;" width="2683.333" height="87.037"/>
<path style="fill:#4D4D4D;" d="M1475.188,1688.889H951.002c-11.609,0-21.108-9.499-21.108-21.108L829.63,1319.496
	c0-11.609,9.499-21.108,21.108-21.108h524.187c11.609,0,21.108,9.499,21.108,21.108l100.264,348.285
	C1496.296,1679.39,1486.798,1688.889,1475.188,1688.889z"/>
<path style="fill:#333333;" d="M1759.259,1714.815H964.815c-7.13,0-12.963-5.833-12.963-12.963v0c0-7.13,5.833-12.963,12.963-12.963
	h794.444c7.13,0,12.963,5.833,12.963,12.963v0C1772.222,1708.981,1766.389,1714.815,1759.259,1714.815z"/>
</svg>
